<svg width="164" height="51" viewBox="0 0 164 51" fill="none" xmlns="http://www.w3.org/2000/svg">
<g clip-path="url(#clip0_327_1822)">
<path d="M86.0985 13.1652C86.0985 14.9792 84.6211 16.4405 82.7872 16.4405C80.9533 16.4405 79.476 14.9792 79.476 13.1652C79.476 11.3512 80.9024 9.88995 82.7872 9.88995C84.6721 9.94034 86.0985 11.4016 86.0985 13.1652ZM72.446 19.7662C72.446 20.0685 72.446 20.5724 72.446 20.5724C72.446 20.5724 70.8668 18.5569 67.5047 18.5569C61.952 18.5569 57.622 22.7392 57.622 28.5339C57.622 34.2783 61.9011 38.5109 67.5047 38.5109C70.9178 38.5109 72.446 36.445 72.446 36.445V37.3016C72.446 37.7047 72.7517 38.007 73.1592 38.007H77.2855V19.0608C77.2855 19.0608 73.5158 19.0608 73.1592 19.0608C72.7517 19.0608 72.446 19.4135 72.446 19.7662ZM72.446 31.91C71.6819 33.0185 70.1537 33.9759 68.3198 33.9759C65.0595 33.9759 62.5633 31.9604 62.5633 28.5339C62.5633 25.1074 65.0595 23.0919 68.3198 23.0919C70.1027 23.0919 71.7329 24.0997 72.446 25.1578V31.91ZM80.342 19.0608H85.2325V38.007H80.342V19.0608ZM153.393 18.5569C150.031 18.5569 148.451 20.5724 148.451 20.5724V9.94034H143.561V38.007C143.561 38.007 147.331 38.007 147.687 38.007C148.095 38.007 148.4 37.6543 148.4 37.3016V36.445C148.4 36.445 149.98 38.5109 153.342 38.5109C158.894 38.5109 163.224 34.2783 163.224 28.5339C163.224 22.7895 158.894 18.5569 153.393 18.5569ZM152.578 33.9255C150.693 33.9255 149.215 32.9681 148.451 31.8596V25.1074C149.215 24.0997 150.846 23.0415 152.578 23.0415C155.838 23.0415 158.334 25.0571 158.334 28.4835C158.334 31.91 155.838 33.9255 152.578 33.9255ZM141.014 26.7703V38.0574H136.123V27.3246C136.123 24.2004 135.105 22.9407 132.354 22.9407C130.876 22.9407 129.348 23.6966 128.38 24.8051V38.007H123.49V19.0608H127.361C127.769 19.0608 128.075 19.4135 128.075 19.7662V20.5724C129.501 19.1111 131.386 18.5569 133.271 18.5569C135.41 18.5569 137.193 19.1615 138.62 20.3709C140.352 21.7818 141.014 23.5958 141.014 26.7703ZM111.62 18.5569C108.258 18.5569 106.679 20.5724 106.679 20.5724V9.94034H101.789V38.007C101.789 38.007 105.558 38.007 105.915 38.007C106.322 38.007 106.628 37.6543 106.628 37.3016V36.445C106.628 36.445 108.207 38.5109 111.569 38.5109C117.122 38.5109 121.452 34.2783 121.452 28.5339C121.503 22.7895 117.173 18.5569 111.62 18.5569ZM110.805 33.9255C108.92 33.9255 107.443 32.9681 106.679 31.8596V25.1074C107.443 24.0997 109.073 23.0415 110.805 23.0415C114.066 23.0415 116.562 25.0571 116.562 28.4835C116.562 31.91 114.066 33.9255 110.805 33.9255ZM97.5604 18.5569C99.0377 18.5569 99.8018 18.8088 99.8018 18.8088V23.2934C99.8018 23.2934 95.7265 21.9329 93.1794 24.8051V38.0574H88.289V19.0608C88.289 19.0608 92.0587 19.0608 92.4153 19.0608C92.8228 19.0608 93.1284 19.4135 93.1284 19.7662V20.5724C94.0454 19.5143 96.0321 18.5569 97.5604 18.5569ZM46.7713 36.2938C46.5166 35.6892 46.2619 35.0341 46.0072 34.4798C45.5997 33.5728 45.1921 32.7162 44.8355 31.91L44.7846 31.8596C41.2696 24.3012 37.4999 16.6421 33.5264 9.08372L33.3736 8.78139C32.9661 8.02555 32.5586 7.21933 32.151 6.4131C31.6416 5.5061 31.1322 4.5487 30.3171 3.6417C28.687 1.62614 26.3436 0.517578 23.8475 0.517578C21.3004 0.517578 19.008 1.62614 17.3269 3.54092C16.5628 4.44793 16.0024 5.40532 15.493 6.31232C15.0855 7.11855 14.678 7.92477 14.2704 8.68061L14.1176 8.98294C10.1951 16.5413 6.37443 24.2004 2.85944 31.7588L2.8085 31.8596C2.4519 32.6658 2.04437 33.5224 1.63683 34.4294C1.38212 34.9837 1.12741 35.5884 0.872705 36.2434C0.21046 38.1078 0.00669296 39.8714 0.261402 41.6855C0.821763 45.4646 3.36886 48.6391 6.88385 50.05C8.20833 50.6043 9.58377 50.8563 11.0101 50.8563C11.4177 50.8563 11.9271 50.8059 12.3346 50.7555C14.0157 50.5539 15.7477 49.9997 17.4288 49.0423C19.5174 47.8833 21.5042 46.2205 23.7456 43.8018C25.9871 46.2205 28.0247 47.8833 30.0624 49.0423C31.7435 49.9997 33.4755 50.5539 35.1566 50.7555C35.5641 50.8059 36.0735 50.8563 36.4811 50.8563C37.9075 50.8563 39.3338 50.6043 40.6074 50.05C44.1733 48.6391 46.6695 45.4142 47.2298 41.6855C47.6373 39.9218 47.4336 38.1582 46.7713 36.2938ZM23.7966 38.9141C21.0457 35.4876 19.2627 32.2627 18.6514 29.5417C18.3967 28.3827 18.3458 27.375 18.4986 26.468C18.6005 25.6617 18.9061 24.9563 19.3137 24.3516C20.2816 22.9911 21.9117 22.1345 23.7966 22.1345C25.6814 22.1345 27.3625 22.9407 28.2794 24.3516C28.687 24.9563 28.9926 25.6617 29.0945 26.468C29.2473 27.375 29.1964 28.4331 28.9417 29.5417C28.3304 32.2123 26.5474 35.4372 23.7966 38.9141ZM44.1224 41.2823C43.7658 43.9026 41.9828 46.1701 39.4866 47.1779C38.264 47.6818 36.9396 47.8329 35.6151 47.6818C34.3415 47.5306 33.068 47.1275 31.7435 46.3716C29.9096 45.3639 28.0757 43.8018 25.9361 41.4839C29.2983 37.4024 31.3359 33.6736 32.1001 30.3479C32.4567 28.7859 32.5076 27.375 32.3548 26.0648C32.151 24.8051 31.6925 23.6462 30.9794 22.6384C29.4002 20.3709 26.7512 19.0608 23.7966 19.0608C20.8419 19.0608 18.1929 20.4213 16.6137 22.6384C15.9006 23.6462 15.4421 24.8051 15.2383 26.0648C15.0345 27.375 15.0855 28.8362 15.493 30.3479C16.2572 33.6736 18.3458 37.4528 21.657 41.5343C19.5684 43.8522 17.6835 45.4142 15.8496 46.422C14.5251 47.1779 13.2516 47.581 11.978 47.7321C10.6026 47.8833 9.27812 47.6818 8.10645 47.2282C5.6103 46.2205 3.82733 43.953 3.47074 41.3327C3.31791 40.073 3.4198 38.8133 3.92922 37.4024C4.08204 36.8985 4.33675 36.3946 4.59146 35.7899C4.94805 34.9837 5.35559 34.1271 5.76312 33.2705L5.81407 33.1697C9.32906 25.6617 13.0988 18.0026 17.0213 10.545L17.1741 10.2427C17.5816 9.48683 17.9892 8.68061 18.3967 7.92477C18.8042 7.11855 19.2627 6.36271 19.8231 5.70765C20.8929 4.49832 22.3192 3.84326 23.8984 3.84326C25.4776 3.84326 26.904 4.49832 27.9738 5.70765C28.5341 6.36271 28.9926 7.11855 29.4002 7.92477C29.8077 8.68061 30.2152 9.48683 30.6228 10.2427L30.7756 10.545C34.6472 18.053 38.4169 25.7121 41.9319 33.2201V33.2705C42.3394 34.0767 42.696 34.9837 43.1035 35.7899C43.3582 36.3946 43.6129 36.8985 43.7658 37.4024C44.1733 38.7125 44.3261 39.9722 44.1224 41.2823Z" fill="white"/>
</g>
<defs>
<clipPath id="clip0_327_1822">
<rect width="163.065" height="50.3387" fill="white" transform="translate(0.160156 0.517578)"/>
</clipPath>
</defs>
</svg>
