<svg width="213" height="50" viewBox="0 0 213 50" fill="none" xmlns="http://www.w3.org/2000/svg">
<g clip-path="url(#clip0_327_1825)">
<path d="M42.167 8.45313L30.0768 0.685547L17.9888 8.45313L30.0768 16.223L42.167 8.45313Z" fill="white"/>
<path d="M17.9888 41.6301L30.0768 49.4L42.167 41.6301L30.0768 33.8625L17.9888 41.6301Z" fill="white"/>
<path d="M12.8657 22.8044L0.775391 30.572L12.8657 38.3396L24.9537 30.572L12.8657 22.8044Z" fill="white"/>
<path d="M47.2901 22.8044L35.2021 30.572L47.2901 38.3396L59.3804 30.572L47.2901 22.8044Z" fill="white"/>
<path d="M83.088 12.338C81.1704 12.338 79.6686 12.739 78.5823 13.5408C77.496 14.3427 76.9541 15.4533 76.9541 16.8726C76.9541 17.4464 77.0597 17.9833 77.2687 18.481C77.4799 18.9788 77.7854 19.4096 78.1896 19.7736C78.5938 20.1378 79.0944 20.4188 79.6915 20.6217C80.2885 20.8244 80.9822 20.9257 81.7744 20.9257C82.918 20.9257 83.963 20.6815 84.9045 20.1908C85.8461 19.7023 86.5879 19.0502 87.1252 18.2414V20.647H89.7501V12.186C89.7501 11.3587 89.6147 10.6076 89.3459 9.93244C89.0773 9.25731 88.68 8.67896 88.1587 8.19737C87.6374 7.7158 86.9921 7.34482 86.2273 7.08214C85.4603 6.81947 84.59 6.69043 83.614 6.69043C82.1488 6.69043 80.8903 6.98537 79.8408 7.57754C78.789 8.16972 77.9255 8.91168 77.2526 9.8057L79.6754 11.2251C80.0636 10.55 80.5849 10.0131 81.2417 9.61676C81.8985 9.22044 82.6815 9.02227 83.5886 9.02227C84.8012 9.02227 85.6923 9.3103 86.2641 9.88405C86.8359 10.4578 87.1229 11.202 87.1229 12.1122V12.3403H83.0834L83.088 12.338ZM87.1275 15.6561C86.9094 16.1123 86.6269 16.5178 86.2824 16.8726C85.938 17.2276 85.5544 17.527 85.1342 17.7713C84.7139 18.0156 84.2685 18.2068 83.7954 18.3405C83.3245 18.4764 82.8445 18.5433 82.3554 18.5433C81.446 18.5433 80.7823 18.3751 80.362 18.0363C79.9418 17.6999 79.7306 17.2345 79.7306 16.6423C79.7306 15.9671 80.0038 15.4441 80.5503 15.0709C81.0969 14.6998 82.0018 14.5132 83.2648 14.5132H87.1275V15.6538V15.6561Z" fill="white"/>
<path d="M101.82 10.1329C102.408 10.8265 102.704 11.7551 102.704 12.9187V20.6447H105.455V12.7182C105.455 11.7896 105.324 10.9486 105.065 10.1974C104.803 9.44626 104.433 8.8126 103.953 8.29876C103.473 7.78493 102.883 7.38629 102.185 7.1075C101.487 6.82869 100.708 6.69043 99.8493 6.69043C98.8893 6.69043 98.0442 6.88859 97.3116 7.28491C96.579 7.68124 95.9774 8.2089 95.5065 8.8679V6.73882L92.8311 7.89091V20.647H95.557V13.0984C95.557 12.4901 95.649 11.9371 95.8349 11.4394C96.0209 10.9417 96.2758 10.52 96.6042 10.1721C96.9326 9.82645 97.3185 9.55915 97.7662 9.37482C98.2118 9.18818 98.6964 9.09601 99.2177 9.09601C100.361 9.09601 101.229 9.44164 101.817 10.1352L101.82 10.1329Z" fill="white"/>
<path d="M119.213 15.5796C118.876 16.3746 118.368 17.0359 117.686 17.5681C117.004 18.1005 116.175 18.3654 115.199 18.3654C114.558 18.3654 113.966 18.2478 113.419 18.0106C112.873 17.7733 112.397 17.4484 111.993 17.0359C111.589 16.6212 111.274 16.1373 111.047 15.5796C110.82 15.022 110.707 14.4321 110.707 13.8054C110.707 13.1787 110.82 12.5888 111.047 12.0335C111.274 11.4759 111.587 10.992 111.982 10.5772C112.377 10.1648 112.843 9.83988 113.382 9.60256C113.922 9.36522 114.51 9.24771 115.151 9.24771C116.076 9.24771 116.889 9.48503 117.587 9.9574C118.285 10.4298 118.811 11.0888 119.165 11.9321L121.613 10.8676C121.36 10.2592 121.021 9.69932 120.591 9.18319C120.162 8.66936 119.67 8.22464 119.114 7.85367C118.559 7.48269 117.948 7.19466 117.284 6.9919C116.618 6.78912 115.909 6.68774 115.151 6.68774C114.156 6.68774 113.229 6.86977 112.36 7.23154C111.495 7.5956 110.741 8.0979 110.101 8.73848C109.46 9.38135 108.957 10.1325 108.585 10.992C108.215 11.8538 108.029 12.7916 108.029 13.8031C108.029 14.8147 108.211 15.7271 108.571 16.5888C108.934 17.4507 109.435 18.2018 110.073 18.8424C110.712 19.4852 111.469 19.9899 112.344 20.3632C113.219 20.7342 114.161 20.9208 115.171 20.9208C116.754 20.9208 118.099 20.5199 119.211 19.718C120.322 18.9162 121.147 17.8815 121.684 16.6143L119.211 15.575L119.213 15.5796Z" fill="white"/>
<path d="M133.085 10.1328C133.666 10.8263 133.956 11.7549 133.956 12.9186V20.6446H136.732V12.7181C136.732 11.7895 136.601 10.9485 136.342 10.1973C136.079 9.44612 135.71 8.81246 135.23 8.29862C134.75 7.78479 134.16 7.38617 133.462 7.10736C132.764 6.82854 131.985 6.69029 131.126 6.69029C130.201 6.69029 129.372 6.87923 128.639 7.25943C127.907 7.63962 127.298 8.15115 126.809 8.79173V0.685547L124.108 1.84686V20.6446H126.834V13.0983C126.834 12.49 126.926 11.937 127.112 11.4393C127.298 10.9415 127.553 10.5199 127.881 10.1719C128.21 9.82631 128.596 9.55902 129.044 9.37468C129.489 9.18805 129.964 9.09588 130.47 9.09588C131.632 9.09588 132.502 9.44151 133.083 10.1351L133.085 10.1328Z" fill="white"/>
<path d="M151.424 8.76612C150.784 8.12556 150.034 7.61863 149.165 7.24535C148.297 6.87438 147.376 6.68774 146.401 6.68774C145.424 6.68774 144.483 6.87438 143.624 7.24535C142.765 7.61633 142.016 8.12325 141.378 8.76612C140.738 9.409 140.235 10.1625 139.862 11.0335C139.493 11.9044 139.307 12.8284 139.307 13.8077C139.307 14.7871 139.493 15.7317 139.862 16.5934C140.232 17.4553 140.738 18.2064 141.378 18.847C142.016 19.4898 142.767 19.9945 143.624 20.3678C144.483 20.7388 145.408 20.9254 146.401 20.9254C147.392 20.9254 148.297 20.7388 149.165 20.3678C150.031 19.9968 150.784 19.4898 151.424 18.847C152.064 18.2064 152.568 17.453 152.94 16.5934C153.31 15.7317 153.496 14.8032 153.496 13.8077C153.496 12.8123 153.31 11.9044 152.94 11.0335C152.571 10.1648 152.065 9.409 151.424 8.76612ZM150.453 15.5934C150.227 16.1419 149.914 16.6235 149.519 17.0382C149.124 17.453 148.66 17.7779 148.13 18.0129C147.6 18.2501 147.022 18.3677 146.401 18.3677C145.778 18.3677 145.202 18.2501 144.672 18.0129C144.14 17.7756 143.676 17.4507 143.281 17.0382C142.886 16.6235 142.579 16.1442 142.361 15.5934C142.143 15.0451 142.032 14.4505 142.032 13.8077C142.032 13.1648 142.143 12.5911 142.361 12.0358C142.579 11.4782 142.886 10.9943 143.281 10.5795C143.676 10.1671 144.14 9.84219 144.672 9.60486C145.202 9.36752 145.778 9.25001 146.401 9.25001C147.022 9.25001 147.578 9.36752 148.116 9.60486C148.656 9.84219 149.122 10.1671 149.516 10.5795C149.911 10.9943 150.224 11.4782 150.451 12.0358C150.679 12.5934 150.791 13.1833 150.791 13.8077C150.791 14.4321 150.679 15.0451 150.451 15.5934H150.453Z" fill="white"/>
<path d="M162.482 6.76544C161.607 6.76544 160.841 6.97973 160.185 7.41061C159.529 7.8415 159.058 8.48667 158.772 9.34845V6.73779L156.096 7.88989V20.6459H158.822V12.9476C158.822 11.7149 159.109 10.837 159.681 10.3139C160.253 9.79085 161.027 9.52818 162.002 9.52818C162.742 9.52818 163.316 9.66412 163.718 9.93372L164.779 7.30002C164.511 7.1318 164.177 7.00046 163.782 6.90829C163.387 6.81613 162.953 6.77005 162.482 6.77005V6.76544Z" fill="white"/>
<path d="M176.97 8.19468C176.448 7.71311 175.803 7.34213 175.038 7.07945C174.271 6.81677 173.401 6.68774 172.425 6.68774C170.96 6.68774 169.702 6.98267 168.651 7.57485C167.599 8.16704 166.736 8.90899 166.063 9.80302L168.487 11.2224C168.872 10.5473 169.396 10.0104 170.05 9.61407C170.707 9.21775 171.49 9.01959 172.398 9.01959C173.61 9.01959 174.5 9.30762 175.072 9.88135C175.644 10.4551 175.931 11.1994 175.931 12.1095V12.3376H171.892C169.974 12.3376 168.47 12.7386 167.386 13.5404C166.3 14.3423 165.758 15.453 165.758 16.8723C165.758 17.4461 165.863 17.9829 166.073 18.4806C166.284 18.9783 166.589 19.4092 166.994 19.7733C167.398 20.1373 167.899 20.4185 168.496 20.6212C169.092 20.8241 169.787 20.9254 170.578 20.9254C171.722 20.9254 172.767 20.6812 173.709 20.1904C174.65 19.7019 175.392 19.0497 175.93 18.2409V20.6465H178.554V12.1856C178.554 11.3583 178.418 10.6072 178.15 9.93204C177.881 9.25692 177.484 8.67857 176.963 8.19698L176.97 8.19468ZM175.934 15.6534C175.716 16.1097 175.434 16.5151 175.088 16.87C174.744 17.2248 174.36 17.5244 173.941 17.7687C173.52 18.0129 173.072 18.2041 172.601 18.3378C172.131 18.4737 171.651 18.5405 171.162 18.5405C170.252 18.5405 169.589 18.3723 169.168 18.0336C168.748 17.6972 168.537 17.2317 168.537 16.6396C168.537 15.9645 168.81 15.4413 169.357 15.0681C169.903 14.6971 170.808 14.5105 172.071 14.5105H175.934V15.6511V15.6534Z" fill="white"/>
<path d="M192.649 8.94394C192.127 8.23424 191.45 7.68124 190.617 7.28491C189.783 6.88859 188.912 6.69043 188.003 6.69043C187.094 6.69043 186.223 6.85863 185.389 7.19735C184.556 7.53607 183.823 8.01765 183.193 8.64208C182.562 9.26653 182.062 10.0154 181.692 10.8841C181.323 11.7551 181.137 12.7297 181.137 13.8104C181.137 14.891 181.324 15.845 181.703 16.723C182.082 17.6008 182.588 18.352 183.219 18.9765C183.85 19.6008 184.579 20.0824 185.403 20.4211C186.228 20.7598 187.087 20.9282 187.977 20.9282C188.869 20.9282 189.787 20.7207 190.627 20.3083C191.469 19.8935 192.15 19.3244 192.672 18.5985V19.6631C192.672 20.2876 192.565 20.8567 192.358 21.3728C192.146 21.8866 191.852 22.3314 191.473 22.7023C191.094 23.0734 190.639 23.3613 190.108 23.564C189.578 23.7669 188.986 23.8682 188.329 23.8682C187.218 23.8682 186.317 23.6954 185.628 23.3498C184.937 23.0042 184.324 22.4581 183.787 21.7161L181.591 23.5157C182.33 24.4443 183.235 25.154 184.306 25.6425C185.373 26.131 186.732 26.3776 188.382 26.3776C189.358 26.3776 190.27 26.214 191.121 25.8845C191.971 25.555 192.712 25.0895 193.342 24.4904C193.973 23.8912 194.47 23.1724 194.832 22.3383C195.195 21.5018 195.375 20.5778 195.375 19.564V6.96694H192.649V8.94164V8.94394ZM192.46 15.5939C192.234 16.1607 191.921 16.6492 191.526 17.064C191.13 17.4787 190.66 17.8082 190.111 18.0525C189.565 18.2967 188.97 18.4188 188.332 18.4188C187.693 18.4188 187.098 18.3013 186.552 18.064C186.005 17.8266 185.529 17.4994 185.125 17.0755C184.721 16.6538 184.406 16.1607 184.179 15.5939C183.951 15.0293 183.839 14.4257 183.839 13.7828C183.839 13.1399 183.951 12.5385 184.179 11.9717C184.406 11.4071 184.721 10.9163 185.125 10.5016C185.529 10.0891 186.005 9.76423 186.552 9.52691C187.098 9.28957 187.69 9.17206 188.332 9.17206C188.972 9.17206 189.565 9.29417 190.111 9.53842C190.657 9.78267 191.129 10.1122 191.526 10.5269C191.921 10.9417 192.234 11.4302 192.46 11.997C192.688 12.5638 192.8 13.1583 192.8 13.7828C192.8 14.4073 192.688 15.0293 192.46 15.5939Z" fill="white"/>
<path d="M212.086 13.6787C212.086 12.6648 211.909 11.7316 211.556 10.8791C211.203 10.0265 210.713 9.28687 210.091 8.66244C209.468 8.038 208.732 7.55181 207.882 7.20618C207.033 6.86056 206.102 6.68774 205.092 6.68774C204.082 6.68774 203.147 6.87438 202.289 7.24535C201.432 7.61633 200.682 8.12325 200.044 8.76612C199.403 9.409 198.903 10.1625 198.541 11.0335C198.179 11.9044 198 12.8446 198 13.8584C198 14.8723 198.172 15.7825 198.517 16.6442C198.861 17.5059 199.353 18.2524 199.994 18.8861C200.632 19.5198 201.394 20.0176 202.278 20.3816C203.162 20.7434 204.15 20.9254 205.246 20.9254C206.726 20.9254 207.971 20.6258 208.981 20.0268C209.993 19.4277 210.824 18.6304 211.48 17.6327L209.235 16.2894C208.83 16.9484 208.304 17.4806 207.657 17.8838C207.01 18.2894 206.206 18.4921 205.246 18.4921C203.982 18.4921 202.949 18.158 202.141 17.4921C201.332 16.8262 200.827 15.9344 200.625 14.8193H212.086V13.6787ZM200.726 12.4874C200.995 11.492 201.516 10.6763 202.292 10.0427C203.066 9.409 204.001 9.09332 205.093 9.09332C206.187 9.09332 207.158 9.38827 207.909 9.98044C208.658 10.5726 209.134 11.4067 209.336 12.4874H200.728H200.726Z" fill="white"/>
<path d="M87.0768 31.8931C86.5556 31.218 85.878 30.6858 85.0444 30.2964C84.2108 29.9092 83.3405 29.7134 82.4309 29.7134C81.5215 29.7134 80.6512 29.8816 79.8176 30.2203C78.984 30.559 78.2514 31.0406 77.6221 31.6651C76.9905 32.2895 76.4899 33.0383 76.1202 33.9071C75.7504 34.778 75.5645 35.7527 75.5645 36.8334C75.5645 37.914 75.7527 38.868 76.1317 39.746C76.5107 40.6238 77.0159 41.3749 77.6473 41.9994C78.2789 42.6238 79.0069 43.1054 79.8314 43.4441C80.6558 43.7828 81.5146 43.9511 82.4057 43.9511C83.2968 43.9511 84.1855 43.7483 85.0192 43.3428C85.8528 42.9372 86.5371 42.3796 87.0768 41.6699V43.67H89.7522V23.7109L87.0768 24.863V31.8931ZM86.7736 38.6192C86.5463 39.186 86.234 39.6745 85.839 40.0893C85.444 40.504 84.9732 40.8335 84.4244 41.0778C83.8778 41.322 83.283 41.4441 82.6446 41.4441C82.0061 41.4441 81.4113 41.3266 80.8647 41.0893C80.3182 40.8519 79.8428 40.5247 79.4386 40.1008C79.0344 39.6791 78.7198 39.186 78.4925 38.6192C78.2652 38.0546 78.1525 37.451 78.1525 36.8081C78.1525 36.1652 78.2652 35.5638 78.4925 34.997C78.7198 34.4324 79.0344 33.9416 79.4386 33.5268C79.8428 33.1144 80.3182 32.7895 80.8647 32.5521C81.4113 32.3149 82.0038 32.1973 82.6446 32.1973C83.2853 32.1973 83.8778 32.3195 84.4244 32.5638C84.9709 32.8079 85.4417 33.1374 85.839 33.5522C86.234 33.967 86.5463 34.4554 86.7736 35.0223C87.001 35.5891 87.1135 36.1836 87.1135 36.8081C87.1135 37.4326 87.001 38.0546 86.7736 38.6192Z" fill="white"/>
<path d="M94.1757 24.1814C93.6796 24.1814 93.2685 24.3473 92.9446 24.6791C92.6207 25.0109 92.46 25.4257 92.46 25.9257C92.46 26.4257 92.6185 26.8404 92.9354 27.1722C93.2524 27.504 93.6658 27.6699 94.178 27.6699C94.6903 27.6699 95.1083 27.504 95.4321 27.1722C95.756 26.8404 95.9166 26.4257 95.9166 25.9257C95.9166 25.4257 95.7535 25.0132 95.4321 24.6791C95.1083 24.3473 94.6903 24.1814 94.178 24.1814H94.1757Z" fill="white"/>
<path d="M116.841 24.1814C116.345 24.1814 115.933 24.3473 115.61 24.6791C115.286 25.0109 115.125 25.4257 115.125 25.9257C115.125 26.4257 115.283 26.8404 115.6 27.1722C115.917 27.504 116.331 27.6699 116.843 27.6699C117.355 27.6699 117.773 27.504 118.097 27.1722C118.421 26.8404 118.582 26.4257 118.582 25.9257C118.582 25.4257 118.419 25.0132 118.097 24.6791C117.773 24.3473 117.355 24.1814 116.843 24.1814H116.841Z" fill="white"/>
<path d="M95.5616 29.9932H92.8101V43.6709H95.5616V29.9932Z" fill="white"/>
<path d="M109.647 31.9692C109.125 31.2594 108.448 30.7064 107.614 30.31C106.781 29.9138 105.91 29.7156 105.001 29.7156C104.091 29.7156 103.221 29.8838 102.387 30.2225C101.554 30.5613 100.821 31.0428 100.192 31.6673C99.5605 32.2916 99.0597 33.0406 98.6901 33.9092C98.3203 34.7803 98.1343 35.7549 98.1343 36.8355C98.1343 37.9163 98.3226 38.8702 98.7015 39.7481C99.0805 40.6259 99.5857 41.3771 100.217 42.0016C100.849 42.6261 101.577 43.1076 102.401 43.4464C103.226 43.7851 104.084 43.9533 104.976 43.9533C105.867 43.9533 106.785 43.7459 107.626 43.3334C108.466 42.921 109.148 42.3495 109.67 41.6237V42.6882C109.67 43.3127 109.564 43.8819 109.355 44.398C109.144 44.9118 108.85 45.3566 108.471 45.7275C108.092 46.0985 107.637 46.3865 107.107 46.5893C106.576 46.792 105.984 46.8934 105.327 46.8934C104.215 46.8934 103.315 46.7206 102.626 46.375C101.935 46.0294 101.322 45.4832 100.784 44.7413L98.5891 46.5386C99.3285 47.4671 100.233 48.1769 101.304 48.6654C102.371 49.1539 103.731 49.4004 105.38 49.4004C106.356 49.4004 107.267 49.2368 108.12 48.9073C108.969 48.5778 109.711 48.1123 110.34 47.5133C110.972 46.9142 111.468 46.1953 111.828 45.3612C112.191 44.5248 112.37 43.6007 112.37 42.5869V29.9991H109.644V31.9738L109.647 31.9692ZM109.458 38.619C109.231 39.1859 108.919 39.6744 108.524 40.0891C108.129 40.5039 107.658 40.8334 107.109 41.0776C106.563 41.3219 105.968 41.4439 105.329 41.4439C104.691 41.4439 104.096 41.3265 103.549 41.0891C103.003 40.8518 102.528 40.5246 102.123 40.1006C101.719 39.679 101.405 39.1859 101.177 38.619C100.95 38.0545 100.837 37.4508 100.837 36.8079C100.837 36.165 100.95 35.5637 101.177 34.9968C101.405 34.4323 101.719 33.9415 102.123 33.5267C102.528 33.1143 103.003 32.7893 103.549 32.5521C104.096 32.3148 104.689 32.1972 105.329 32.1972C105.97 32.1972 106.563 32.3194 107.109 32.5636C107.656 32.8079 108.126 33.1374 108.524 33.5521C108.919 33.9669 109.231 34.4554 109.458 35.0222C109.686 35.589 109.798 36.1836 109.798 36.8079C109.798 37.4324 109.686 38.0545 109.458 38.619Z" fill="white"/>
<path d="M118.179 29.9932H115.427V43.6709H118.179V29.9932Z" fill="white"/>
<path d="M127.548 41.341C127.008 41.341 126.576 41.1728 126.248 40.8341C125.919 40.4954 125.756 39.9469 125.756 39.1866V32.4492H129.569V29.9928H125.756V25.2808L123.081 26.4329V29.9928H120.38V32.4492H123.081V39.212C123.081 40.9009 123.451 42.1084 124.193 42.8341C124.932 43.5599 125.984 43.9241 127.348 43.9241C127.92 43.9241 128.446 43.8526 128.926 43.7097C129.406 43.5668 129.837 43.3595 130.226 43.09L128.937 40.8111C128.533 41.1659 128.071 41.3433 127.548 41.3433V41.341Z" fill="white"/>
<path d="M142.689 31.22C142.167 30.7384 141.523 30.3675 140.758 30.1047C139.991 29.8421 139.121 29.7131 138.144 29.7131C136.678 29.7131 135.42 30.008 134.371 30.6002C133.319 31.1924 132.456 31.9344 131.783 32.8283L134.205 34.2478C134.594 33.5726 135.115 33.0358 135.772 32.6394C136.429 32.2431 137.211 32.045 138.119 32.045C139.331 32.045 140.223 32.3329 140.794 32.9067C141.366 33.4804 141.653 34.2247 141.653 35.1348V35.363H137.613C135.696 35.363 134.194 35.7639 133.108 36.5658C132.022 37.3676 131.479 38.4783 131.479 39.8977C131.479 40.4714 131.585 41.0082 131.794 41.5059C132.005 42.0036 132.311 42.4346 132.715 42.7986C133.119 43.1628 133.62 43.4438 134.217 43.6465C134.814 43.8494 135.508 43.9507 136.299 43.9507C137.443 43.9507 138.488 43.7065 139.429 43.2157C140.372 42.7272 141.114 42.0751 141.651 41.2664V43.672H144.275V35.2109C144.275 34.3837 144.14 33.6325 143.872 32.9574C143.602 32.2823 143.206 31.7039 142.684 31.2223L142.689 31.22ZM141.653 38.6787C141.435 39.135 141.152 39.5405 140.808 39.8954C140.464 40.2502 140.08 40.5498 139.66 40.794C139.239 41.0383 138.792 41.2295 138.321 41.3632C137.85 41.499 137.37 41.5659 136.881 41.5659C135.972 41.5659 135.308 41.3977 134.888 41.059C134.467 40.7226 134.256 40.2571 134.256 39.6649C134.256 38.9898 134.529 38.4668 135.076 38.0934C135.622 37.7225 136.527 37.5358 137.791 37.5358H141.653V38.6764V38.6787Z" fill="white"/>
<path d="M147.335 43.67H150.087V23.7109L147.335 24.8954V43.67Z" fill="white"/>
</g>
<defs>
<clipPath id="clip0_327_1825">
<rect width="211.741" height="48.7149" fill="white" transform="translate(0.775391 0.685547)"/>
</clipPath>
</defs>
</svg>
