<svg width="109" height="29" viewBox="0 0 109 29" fill="none" xmlns="http://www.w3.org/2000/svg">
<g clip-path="url(#clip0_1530_528)">
<path d="M16.0142 14.1762L13.1191 9.13563L9.86114 3.4582C9.80704 3.36485 9.7295 3.28739 9.63626 3.23355C9.54301 3.1797 9.43733 3.15137 9.32976 3.15137C9.22219 3.15137 9.11651 3.1797 9.02327 3.23355C8.93002 3.28739 8.85248 3.36485 8.79839 3.4582L2.60065 14.1762L0.0936471 18.559C0.0372024 18.6515 0.00627555 18.7574 0.00403704 18.8659C0.00179854 18.9743 0.0283289 19.0814 0.0809084 19.1762C0.133488 19.271 0.210225 19.35 0.303253 19.4052C0.396281 19.4604 0.502254 19.4898 0.610307 19.4903H5.38342C5.49439 19.492 5.60375 19.4634 5.69976 19.4075C5.79577 19.3516 5.87481 19.2705 5.92842 19.1729L8.41362 14.8831L8.79839 14.2265C8.82128 14.2035 8.84417 14.1805 8.84417 14.1587C8.90555 14.0784 8.98573 14.0145 9.07758 13.9728C9.16944 13.9311 9.27013 13.9127 9.37073 13.9194C9.47133 13.9262 9.56872 13.9577 9.65427 14.0113C9.73982 14.0648 9.81087 14.1388 9.86114 14.2265L12.4401 18.7002L12.9153 19.5176C12.9382 19.5625 12.96 19.6085 12.9829 19.6533C13.009 19.7454 13.0136 19.8422 12.9965 19.9364C12.9794 20.0305 12.9409 20.1194 12.8842 20.1963C12.8274 20.2732 12.7538 20.3359 12.6691 20.3797C12.5843 20.4235 12.4907 20.4472 12.3954 20.4489H6.74047C6.62942 20.4468 6.51992 20.4753 6.42385 20.5312C6.32777 20.5872 6.24879 20.6685 6.19547 20.7663L3.82036 24.9248C3.76618 25.0199 3.73799 25.1276 3.73865 25.2372C3.73931 25.3467 3.76879 25.4541 3.82412 25.5486C3.87944 25.643 3.95863 25.7211 4.05368 25.7749C4.14873 25.8287 4.25625 25.8563 4.36536 25.855H21.6233C21.7316 25.854 21.8377 25.825 21.9314 25.7706C22.0252 25.7162 22.1033 25.6384 22.1581 25.5448C22.213 25.4511 22.2428 25.3448 22.2446 25.2361C22.2464 25.1275 22.2201 25.0202 22.1683 24.9248L16.0142 14.1762Z" fill="#111111"/>
<path d="M32.3213 8.93091L27.6855 19.9673H30.8749L31.6444 18.0139H35.8736L36.665 19.9673H39.923L35.285 8.93091H32.3213ZM32.5251 15.6491L33.747 12.5379L34.9678 15.6491H32.5251Z" fill="#111111"/>
<path d="M51.1213 15.1752C51.1213 16.6975 50.33 17.4241 49.1081 17.4241C47.8862 17.4241 47.0883 16.6745 47.0883 15.0844V8.99878H44.0156V15.1533C44.0385 18.5819 45.9842 20.172 49.083 20.172C52.1819 20.172 54.194 18.6268 54.194 15.0844V8.99878H51.1213V15.1752Z" fill="#111111"/>
<path d="M64.1697 8.99878H59.9395V19.9673H64.0815C68.0164 19.9673 70.301 17.6276 70.301 14.4486V14.4037C70.3446 11.2717 68.0828 8.99878 64.1697 8.99878ZM67.2457 14.4946C67.2457 16.2652 66.0467 17.2643 64.2373 17.2643H63.0154V11.7007H64.2373C66.0467 11.7007 67.2457 12.7228 67.2457 14.4716V14.4946Z" fill="#111111"/>
<path d="M78.7579 8.99878H75.7266V19.9673H78.7579V8.99878Z" fill="#111111"/>
<path d="M91.6694 15.1752C91.6694 16.6975 90.878 17.4241 89.6561 17.4241C88.4343 17.4241 87.6429 16.6745 87.6429 15.0844V8.99878H84.5713V15.1533C84.5713 18.5819 86.5169 20.172 89.6376 20.172C92.7365 20.172 94.7497 18.6268 94.7497 15.0844V8.99878H91.6694V15.1752Z" fill="#111111"/>
<path d="M104.972 13.1321C103.457 12.7907 103.072 12.5642 103.072 12.064V12.0378C103.072 11.6515 103.434 11.333 104.162 11.333C105.136 11.333 106.221 11.7193 107.214 12.4274L108.729 10.2704C107.553 9.31725 106.083 8.81714 104.229 8.81714C101.605 8.81714 99.9986 10.2934 99.9986 12.3365V12.3825C99.9986 14.6303 101.786 15.312 104.115 15.834C105.586 16.1744 105.968 16.425 105.968 16.8791V16.924C105.968 17.4011 105.539 17.6736 104.725 17.6736C103.458 17.6736 102.259 17.2195 101.174 16.3604L99.4775 18.3817C100.835 19.5854 102.667 20.1983 104.59 20.1983C107.236 20.1983 109 18.8588 109 16.6329V16.611C109.044 14.4946 107.484 13.7001 104.972 13.1321Z" fill="#111111"/>
</g>
<defs>
<clipPath id="clip0_1530_528">
<rect width="109" height="29" fill="white"/>
</clipPath>
</defs>
</svg>
