<svg width="48" height="18" viewBox="0 0 48 18" fill="none" xmlns="http://www.w3.org/2000/svg">
<g clip-path="url(#clip0_1125_278)">
<path fill-rule="evenodd" clip-rule="evenodd" d="M43.8547 17.8895H40.5952H40.5911C40.2126 17.8895 40.0091 17.4366 40.2615 17.155C42.5241 14.629 43.6065 11.891 43.6065 8.96924C43.6065 6.0475 42.6013 3.25226 40.3226 0.738596C40.0661 0.45295 40.2696 0 40.6522 0H43.9117C44.1315 0 44.335 0.106097 44.4612 0.285644C45.0553 1.15482 45.5518 2.06481 45.9505 3.00743C46.7685 4.94165 47.1429 7.0187 47.1429 8.96516C47.1429 10.9116 46.7645 12.8295 45.9993 14.6658C45.5761 15.686 45.043 16.6653 44.4001 17.6039C44.278 17.7834 44.0705 17.8895 43.8547 17.8895ZM6.54362 18H3.28809C3.07241 18 2.86487 17.8939 2.74279 17.7143C2.09982 16.7758 1.56672 15.7965 1.14351 14.7763C0.378456 12.9401 0 11.0262 0 9.07565C0 7.1251 0.374386 5.05214 1.19234 3.11791C1.59114 2.17529 2.08761 1.26532 2.68175 0.396134C2.80382 0.216586 3.01137 0.110489 3.22705 0.110489H6.48665C6.86918 0.110489 7.07264 0.56344 6.81628 0.849084C4.53741 3.36276 3.53225 6.15799 3.53225 9.07973C3.53225 12.0015 4.61472 14.7396 6.87731 17.2655C7.12962 17.5471 6.92615 18 6.54769 18H6.54362ZM23.4497 6.90882C22.8921 3.2036 20.0516 0.918443 15.7992 0.918443C10.8548 0.918443 7.80682 4.37067 7.80682 8.93282C7.80682 13.4949 10.8548 16.9717 15.7992 16.9717C20.0558 16.9717 22.8921 14.6824 23.4497 10.9568C23.4701 10.8222 23.3642 10.7038 23.2299 10.7038H20.133C20.0272 10.7038 19.9378 10.7813 19.9174 10.8834C19.5024 12.8258 17.903 13.8704 15.8439 13.8704C13.1256 13.8704 11.3391 12.1443 11.3391 8.93282C11.3391 5.72135 13.1296 4.01564 15.8439 4.01564C17.903 4.01564 19.5024 5.03989 19.9174 6.98227C19.9418 7.08429 20.0272 7.16181 20.133 7.16181H23.2299C23.3642 7.16181 23.4701 7.04348 23.4497 6.90882ZM28.7847 11.0139C28.7807 10.8915 28.6871 10.7936 28.565 10.7936L28.561 10.8018H25.4723C25.346 10.8018 25.2485 10.9078 25.2485 11.0303C25.3543 15.5434 28.5813 16.9798 32.5124 16.9798C36.244 16.9798 39.2025 15.6047 39.2025 12.5279C39.2025 9.76118 37.2817 9.42658 35.2958 9.16134V8.27583C37.2817 7.9453 38.9827 7.50052 38.9827 5.15415C38.9827 2.29769 36.4312 0.926605 32.5124 0.926605C28.5935 0.926605 25.5862 2.94244 25.4723 6.82312C25.4723 6.94963 25.5741 7.05164 25.696 7.05164H28.7847C28.9027 7.05164 29.0004 6.95779 29.0045 6.83537C29.0655 5.15822 29.8672 4.02789 32.5124 4.02789C34.7871 4.02789 35.4504 4.58286 35.4504 5.59893C35.4504 6.61501 34.8563 7.16998 33.5297 7.16998H31.5846C31.4625 7.16998 31.3648 7.26792 31.3648 7.39033V10.0468C31.3648 10.1693 31.4625 10.2672 31.5846 10.2672H33.5297C34.8522 10.2672 35.6702 10.8222 35.6702 12.0831C35.6702 13.344 34.7871 13.8745 32.5124 13.8745C29.8388 13.8745 28.8417 13.2909 28.7847 11.0139Z" fill="black"/>
</g>
<defs>
<clipPath id="clip0_1125_278">
<rect width="47.1429" height="18" fill="white"/>
</clipPath>
</defs>
</svg>
