<svg width="178" height="33" viewBox="0 0 178 33" fill="none" xmlns="http://www.w3.org/2000/svg">
<path d="M35.8516 9.30823C29.4035 9.30823 24.3651 14.2064 24.3651 20.7637C24.3651 27.321 29.2762 32.1772 35.8516 32.1772C42.4271 32.1772 47.4236 27.2371 47.4236 20.7218C47.4236 14.2483 42.5125 9.30823 35.8516 9.30823ZM35.8951 27.4516C32.2231 27.4516 29.5324 24.5978 29.5324 20.7653C29.5324 16.8893 32.1796 14.0371 35.8516 14.0371C39.5672 14.0371 42.2563 16.9328 42.2563 20.7653C42.2563 24.5978 39.5672 27.4516 35.8951 27.4516ZM48.8318 14.2919H52.0349V31.7532H57.1587V9.73388H48.8318V14.2919ZM11.4704 14.0355C14.1611 14.0355 16.296 15.6962 17.1065 18.1663H22.5299C21.5471 12.8859 17.1919 9.30823 11.5139 9.30823C5.06569 9.30823 0.0273438 14.2064 0.0273438 20.7653C0.0273438 27.3242 4.9384 32.1788 11.5139 32.1788C17.0646 32.1788 21.5052 28.6011 22.488 23.2773H17.1065C16.3379 25.7473 14.203 27.4516 11.5123 27.4516C7.79674 27.4516 5.19298 24.5978 5.19298 20.7653C5.19459 16.8893 7.75646 14.0355 11.4704 14.0355ZM146.186 18.6354L142.429 18.0824C140.635 17.8277 139.354 17.2311 139.354 15.8252C139.354 14.2919 141.02 13.526 143.283 13.526C145.759 13.526 147.34 14.5902 147.681 16.3363H152.634C152.078 11.9073 148.663 9.30984 143.412 9.30984C137.988 9.30984 134.402 12.0782 134.402 15.9961C134.402 19.7431 136.751 21.9165 141.489 22.5969L145.247 23.1499C147.084 23.4047 148.108 24.1302 148.108 25.4926C148.108 27.2387 146.315 27.9627 143.839 27.9627C140.806 27.9627 139.098 26.7276 138.842 24.8541H133.804C134.274 29.1558 137.647 32.1788 143.795 32.1788C149.389 32.1788 153.103 29.6233 153.103 25.2362C153.103 21.3183 150.414 19.2739 146.186 18.6354ZM54.5968 0.66302C52.7181 0.66302 51.3083 2.02542 51.3083 3.89893C51.3083 5.77243 52.7165 7.13483 54.5968 7.13483C56.4755 7.13483 57.8853 5.77243 57.8853 3.89893C57.8853 2.02542 56.4755 0.66302 54.5968 0.66302ZM129.79 17.273C129.79 12.5038 126.887 9.30984 120.738 9.30984C114.931 9.30984 111.686 12.2491 111.045 16.7635H116.127C116.383 15.0174 117.749 13.5696 120.653 13.5696C123.258 13.5696 124.539 14.7191 124.539 16.1251C124.539 17.9567 122.19 18.4242 119.286 18.7225C115.358 19.1482 110.491 20.5106 110.491 25.6216C110.491 29.583 113.438 32.1369 118.134 32.1369C121.806 32.1369 124.112 30.6036 125.266 28.1755C125.437 30.3473 127.059 31.7532 129.323 31.7532H132.312V27.1968H129.792V17.273H129.79ZM124.752 22.8097C124.752 25.749 122.19 27.9207 119.072 27.9207C117.15 27.9207 115.527 27.1114 115.527 25.4088C115.527 23.237 118.133 22.6404 120.524 22.3857C122.83 22.1729 124.111 21.6617 124.752 20.6815V22.8097ZM97.5525 9.30823C94.6909 9.30823 92.2998 10.5013 90.5919 12.5022V0.450195H85.4682V31.7532H90.5065V28.8575C92.2144 30.9438 94.649 32.1788 97.5525 32.1788C103.701 32.1788 108.356 27.3242 108.356 20.7653C108.356 14.2064 103.616 9.30823 97.5525 9.30823ZM96.7839 27.4516C93.1119 27.4516 90.4211 24.5978 90.4211 20.7653C90.4211 16.9328 93.1538 14.0371 96.8258 14.0371C100.541 14.0371 103.145 16.8909 103.145 20.7653C103.145 24.5978 100.456 27.4516 96.7839 27.4516ZM73.2131 9.30823C69.8826 9.30823 67.7042 10.6706 66.4233 12.5877V9.73388H61.3415V31.7516H66.4652V19.785C66.4652 16.4201 68.6001 14.0355 71.7597 14.0355C74.7067 14.0355 76.5419 16.1219 76.5419 19.1465V31.7532H81.6656V18.7644C81.6672 13.2261 78.8073 9.30823 73.2131 9.30823ZM177.528 20.0414C177.528 13.7389 172.917 9.30984 166.725 9.30984C160.149 9.30984 155.323 14.25 155.323 20.7653C155.323 27.6225 160.491 32.1788 166.81 32.1788C172.148 32.1788 176.332 29.0268 177.399 24.5558H172.061C171.292 26.5148 169.414 27.6225 166.894 27.6225C163.605 27.6225 161.129 25.5781 160.574 22.0003H177.526V20.0414H177.528ZM160.874 18.3372C161.686 15.2706 163.992 13.7808 166.639 13.7808C169.543 13.7808 171.763 15.4415 172.275 18.3372H160.874Z" fill="white"/>
</svg>
