<svg width="72" height="72" viewBox="0 0 72 72" fill="none" xmlns="http://www.w3.org/2000/svg">
<circle cx="36" cy="36" r="35" stroke="black" stroke-width="2"/>
<path d="M43.2372 31.7506L50.2768 24.6792L49.0049 23.4073L43.2372 29.175L40.3278 26.285L39.0558 27.5886L43.2372 31.7506ZM19.1455 51.323V48.2605H42.6247V51.323H19.1455ZM44.6694 37.0313C41.987 37.0313 39.6996 36.086 37.8074 34.1955C35.9147 32.3049 34.9684 30.0185 34.9684 27.3365C34.9684 24.6541 35.9137 22.3667 37.8043 20.4744C39.6949 18.5818 41.9812 17.6355 44.6633 17.6355C47.3457 17.6355 49.633 18.5808 51.5253 20.4714C53.4179 22.362 54.3643 24.6483 54.3643 27.3304C54.3643 30.0128 53.419 32.3001 51.5284 34.1924C49.6378 36.085 47.3515 37.0313 44.6694 37.0313ZM19.1455 34.9897V31.9272H31.0658C31.2516 32.4927 31.4615 33.0273 31.6956 33.5309C31.9301 34.0348 32.2096 34.5211 32.5342 34.9897H19.1455ZM19.1455 43.1563V40.0938H38.1999C38.8648 40.4525 39.5676 40.7574 40.3084 41.0085C41.0492 41.26 41.8213 41.4407 42.6247 41.5506V43.1563H19.1455Z" fill="black"/>
</svg>
