<svg width="166" height="43" viewBox="0 0 166 43" fill="none" xmlns="http://www.w3.org/2000/svg">
<path d="M79.099 39.7324H88.146H93.126V19.88H83.166V29.8474H79.099C73.5657 29.8474 69.056 25.3991 69.056 19.88C69.056 14.3608 73.5657 9.91251 79.099 9.91251V0.0274602C68.0323 0.0274602 59.0683 8.92401 59.0683 19.88C59.0683 30.8359 68.0323 39.7324 79.099 39.7324ZM56.938 39.7324C45.8713 39.7324 36.9073 30.8359 36.9073 19.88C36.9073 8.89655 45.8713 0.0274602 56.938 0.0274602V9.91251C51.377 9.91251 46.895 14.3608 46.895 19.88C46.895 25.3717 51.4047 29.8474 56.938 29.8474V39.7324ZM14.027 0H4.98H0V19.8525H9.96V9.88506H14.027C19.588 9.88506 24.07 14.3333 24.07 19.8525C24.07 25.3442 19.5603 29.8199 14.027 29.8199V39.705C25.0937 39.705 34.0577 30.8084 34.0577 19.8525C34.0577 8.89655 25.0937 0 14.027 0ZM103.722 0H107.623C110.86 0 112.935 2.36143 112.935 5.629C112.935 8.8691 110.86 11.2305 107.623 11.2305H103.722V0ZM107.54 10.0224C109.92 10.0224 111.358 8.26501 111.358 5.60154C111.358 2.93806 109.892 1.20818 107.54 1.20818H105.161V10.0224H107.54ZM114.346 0H115.951V1.75735H114.346V0ZM114.429 3.15773H115.84V11.2305H114.429V3.15773ZM117.528 11.5326H118.994C119.243 12.4662 119.963 12.9329 121.208 12.9329C122.397 12.9329 123.476 12.3563 123.476 10.6814V9.63793C122.84 10.6539 121.899 11.0932 120.82 11.0932C118.856 11.0932 117.251 9.36335 117.251 7.00192C117.251 4.64049 118.856 2.96552 120.82 2.96552C121.899 2.96552 122.951 3.45977 123.476 4.3659V3.15773H124.887V10.6539C124.887 13.1801 123.061 14.0862 121.152 14.0862C119.105 14.0862 117.749 13.1252 117.528 11.5326ZM121.097 9.91251C122.563 9.91251 123.532 8.67689 123.532 7.00192C123.532 5.29949 122.563 4.14623 121.097 4.14623C119.631 4.14623 118.69 5.29949 118.69 7.00192C118.69 8.67689 119.658 9.91251 121.097 9.91251ZM126.658 0H128.263V1.75735H126.658V0ZM126.741 3.15773H128.152V11.2305H126.741V3.15773ZM130.614 9.36334V4.33844H129.314V3.18519H130.255C130.476 3.18519 130.614 3.04789 130.614 2.82823V0.494254H132.025V3.15773H133.824V4.31098H132.025V9.14368C132.025 9.83014 132.219 10.0773 132.855 10.0773H134.017V11.2305H132.44C131.195 11.2305 130.614 10.7088 130.614 9.36334ZM134.847 9.06131C134.847 7.16667 136.48 6.75479 137.808 6.59004L139.578 6.34291C140.215 6.26053 140.353 5.87612 140.353 5.51915C140.353 4.72286 139.827 4.09132 138.582 4.09132C137.365 4.09132 136.673 4.66794 136.535 5.65645H135.124C135.29 4.0364 136.618 2.96552 138.555 2.96552C140.713 2.96552 141.764 4.0364 141.764 5.84866V9.77522C141.764 9.93997 141.902 10.0773 142.096 10.0773H142.594V11.2305H141.626C140.851 11.2305 140.408 10.8186 140.408 10.242V10.0498C139.689 11.0932 138.582 11.4502 137.559 11.4502C135.899 11.4502 134.847 10.4891 134.847 9.06131ZM137.946 10.2969C139.412 10.2969 140.353 9.22606 140.353 7.63346V7.05683C140.076 7.19412 139.8 7.24904 139.523 7.30396L138.084 7.52363C136.839 7.71584 136.314 8.15517 136.314 8.97893C136.314 9.83014 136.95 10.2969 137.946 10.2969ZM143.867 0H145.278V11.2305H143.867V0ZM103.141 20.182C103.141 16.6673 105.244 14.3608 108.26 14.3608C110.888 14.3608 112.52 15.9808 112.88 18.3972H111.331C111.054 16.9144 110.086 15.5964 108.26 15.5964C106.019 15.5964 104.663 17.546 104.663 20.1545C104.663 22.7631 106.046 24.7401 108.26 24.7401C110.169 24.7401 111.22 23.3672 111.441 21.8844H112.991C112.52 24.6028 110.75 25.9757 108.26 25.9757C105.189 25.9757 103.141 23.6692 103.141 20.182ZM114.319 22.7631V17.6833H115.73V22.6533C115.73 24.0536 116.532 24.795 117.722 24.795C118.884 24.795 119.935 23.7791 119.935 22.3512V17.6833H121.346V25.7561H119.935V24.5204C119.409 25.4815 118.386 25.9757 117.224 25.9757C115.536 25.9757 114.319 24.8774 114.319 22.7631ZM123.144 17.6833H124.555V18.9464C125.053 17.9579 125.828 17.6009 126.796 17.6009H127.267V18.9464H126.686C125.385 18.9464 124.555 19.7427 124.555 21.4176V25.7835H123.144V17.6833ZM128.456 17.6833H129.867V18.9464C130.365 17.9579 131.14 17.6009 132.108 17.6009H132.579V18.9464H131.998C130.697 18.9464 129.867 19.7427 129.867 21.4176V25.7835H128.456V17.6833ZM132.994 21.7471C132.994 19.3033 134.488 17.4911 136.895 17.4911C138.914 17.4911 140.685 18.6169 140.491 22.1041H134.46C134.543 23.5869 135.262 24.8499 136.895 24.8499C138.084 24.8499 138.693 24.2458 138.97 23.3672H140.408C140.021 24.9323 138.804 25.9757 136.895 25.9757C134.488 25.9757 132.994 24.1909 132.994 21.7471ZM139.108 21.0332C139.025 19.3857 138.25 18.6169 136.895 18.6169C135.401 18.6169 134.681 19.6877 134.515 21.0332H139.108ZM141.847 17.6833H143.258V18.9189C143.784 18.0128 144.835 17.4911 146.025 17.4911C147.795 17.4911 149.04 18.5894 149.04 20.7312V25.7835H147.602V20.8135C147.602 19.4132 146.799 18.6718 145.582 18.6718C144.309 18.6718 143.258 19.6877 143.258 21.1156V25.7835H141.847V17.6833ZM150.285 21.7471C150.285 19.3308 151.835 17.4911 154.214 17.4911C156.095 17.4911 157.451 18.6169 157.7 20.484H156.261C156.012 19.3582 155.238 18.6718 154.186 18.6718C152.499 18.6718 151.752 20.1271 151.752 21.7471C151.752 23.3672 152.499 24.8499 154.186 24.8499C155.238 24.8499 155.957 24.2733 156.261 23.1475H157.672C157.368 24.8499 156.095 26.0032 154.186 26.0032C151.835 25.9757 150.285 24.1635 150.285 21.7471ZM160.19 27.2937C160.688 27.2937 160.937 27.2114 161.131 26.7171L161.546 25.6462L158.253 17.7107H159.775L162.237 23.8614L164.506 17.7107H166L162.348 27.2114C161.961 28.2548 161.352 28.4745 160.384 28.4745H158.779V27.3212L160.19 27.2937ZM103.141 34.7075C103.141 31.1929 105.299 28.8863 108.343 28.8863C110.999 28.8863 112.603 30.5064 112.935 32.8953H111.386C111.165 31.44 110.086 30.122 108.343 30.122C106.046 30.122 104.663 32.0715 104.663 34.6801C104.663 37.2886 106.074 39.2657 108.343 39.2657C109.947 39.2657 111.497 38.3595 111.69 35.7784H108.038V34.5702H113.074V40.3091H111.718V38.5517C110.999 39.7324 109.837 40.5013 108.038 40.5013C105.299 40.5287 103.141 38.2222 103.141 34.7075ZM115.038 32.2363H116.449V33.4994C116.947 32.5109 117.722 32.1539 118.69 32.1539H119.16V33.4994H118.579C117.279 33.4994 116.449 34.2957 116.449 35.9706V40.3365H115.038V32.2363ZM119.548 36.3001C119.548 33.8838 121.014 32.0441 123.476 32.0441C125.939 32.0441 127.405 33.8838 127.405 36.3001C127.405 38.7165 125.939 40.5287 123.476 40.5287C121.014 40.5287 119.548 38.7165 119.548 36.3001ZM123.476 39.3755C125.247 39.3755 125.939 37.8653 125.939 36.2727C125.939 34.6801 125.247 33.1973 123.476 33.1973C121.678 33.1973 121.014 34.6801 121.014 36.2727C121.014 37.8378 121.678 39.3755 123.476 39.3755ZM128.678 37.3161V32.2363H130.089V37.2063C130.089 38.6066 130.891 39.348 132.081 39.348C133.243 39.348 134.294 38.3321 134.294 36.9042V32.2363H135.705V40.3091H134.294V39.0734C133.768 40.0345 132.745 40.5287 131.583 40.5287C129.867 40.5287 128.678 39.4029 128.678 37.3161ZM137.503 32.2363H138.914V33.4719C139.495 32.5383 140.547 32.0166 141.626 32.0441C143.618 32.0441 145.195 33.7739 145.195 36.3001C145.195 38.8263 143.618 40.5287 141.626 40.5287C140.491 40.5287 139.495 40.0345 138.914 39.1284V43H137.503V32.2363ZM141.294 39.348C142.843 39.348 143.728 38.0849 143.728 36.3001C143.728 34.5153 142.843 33.1973 141.294 33.1973C139.744 33.1973 138.859 34.5153 138.859 36.2727C138.859 38.03 139.744 39.348 141.294 39.348Z" fill="black"/>
</svg>
