<svg width="180" height="47" viewBox="0 0 180 47" fill="none" xmlns="http://www.w3.org/2000/svg">
<g clip-path="url(#clip0_327_1848)">
<path d="M57.1216 17.389C56.7779 14.9317 55.4034 12.7981 52.9232 10.8706L51.4889 9.91414L50.5326 11.3414C49.3075 13.1807 48.6949 15.741 48.8891 18.1983C48.9788 19.0517 49.2627 20.6114 50.1442 21.9504C49.2627 22.436 47.5146 23.0834 45.1838 23.0393H0.660055L0.57041 23.5543C0.152066 26.0116 0.152066 33.7072 5.15725 39.6076C8.96717 44.0955 14.6596 46.3762 22.1002 46.3762C38.2363 46.3762 50.1591 38.9749 55.7619 25.4966C57.9582 25.5407 62.6945 25.5113 65.1299 20.8763C65.1896 20.7733 65.339 20.4937 65.7574 19.6109L65.9964 19.1253L64.6368 18.213C63.1427 17.2566 59.7511 16.8887 57.1216 17.389ZM36.2641 0.953125H29.4959V7.08899H36.2641V0.953125ZM36.2641 8.32499H29.4959V14.4609H36.2641V8.32499ZM28.2558 8.32499H21.4876V14.4609H28.2558V8.32499ZM20.2625 8.32499H13.4943V14.4609H20.2625V8.32499ZM12.2542 15.6969H5.48595V21.8327H12.2542V15.6969ZM20.2625 15.6969H13.4943V21.8327H20.2625V15.6969ZM28.2558 15.6969H21.4876V21.8327H28.2558V15.6969ZM36.2641 15.6969H29.4959V21.8327H36.2641V15.6969ZM44.2724 15.6969H37.5042V21.8327H44.2724V15.6969ZM85.4195 14.3137C84.9265 14.3137 84.5081 14.4756 84.1944 14.7993C83.8657 15.123 83.7013 15.5497 83.7013 16.0353V24.3489C82.028 22.9804 80.1006 22.3036 77.8893 22.3036C75.3345 22.3036 73.1531 23.2159 71.3453 25.0404C69.5374 26.865 68.641 29.0574 68.641 31.6325C68.641 34.2075 69.5524 36.3999 71.3453 38.2245C73.1531 40.049 75.3345 40.9613 77.8893 40.9613C80.4442 40.9613 82.6107 40.049 84.4334 38.2245C86.2413 36.4293 87.1377 34.2222 87.1377 31.6325V16.05C87.1377 15.5497 86.9734 15.1377 86.6297 14.814C86.316 14.4756 85.9126 14.3137 85.4195 14.3137ZM83.2531 33.8985C82.9543 34.6047 82.536 35.2227 82.013 35.7525C81.4901 36.2822 80.8775 36.7089 80.1753 37.0179C79.4731 37.3269 78.7111 37.4887 77.9043 37.4887C77.0975 37.4887 76.3355 37.3416 75.6183 37.0179C74.9161 36.7089 74.3035 36.2822 73.7806 35.7525C73.2577 35.2227 72.8543 34.6047 72.5555 33.8985C72.2566 33.1922 72.1072 32.427 72.1072 31.6325C72.1072 30.8379 72.2566 30.0727 72.5555 29.3664C72.8543 28.6602 73.2726 28.0422 73.7806 27.5124C74.3035 26.9827 74.9161 26.5707 75.6183 26.247C76.3206 25.938 77.0825 25.7762 77.9043 25.7762C78.726 25.7762 79.4581 25.9233 80.1753 26.247C80.8775 26.556 81.4901 26.9827 82.013 27.5124C82.536 28.0422 82.9543 28.6602 83.2531 29.3664C83.5519 30.0727 83.7013 30.8232 83.7013 31.6177C83.7013 32.427 83.5519 33.1775 83.2531 33.8985ZM161.11 25.0404C159.287 23.2159 157.091 22.3036 154.566 22.3036C152.026 22.3036 149.83 23.2159 148.022 25.0404C146.214 26.865 145.317 29.0574 145.317 31.6325C145.317 34.2075 146.229 36.3999 148.022 38.2245C149.83 40.049 152.011 40.9613 154.566 40.9613C156.897 40.9613 158.899 40.2109 160.617 38.6953C160.946 38.3569 161.11 37.9302 161.11 37.4446C161.11 36.959 160.946 36.5323 160.617 36.2086C160.288 35.8849 159.885 35.723 159.392 35.723C158.958 35.7377 158.585 35.8702 158.256 36.1645C157.733 36.6059 157.18 36.9443 156.568 37.165C155.955 37.3857 155.298 37.5035 154.566 37.5035C153.923 37.5035 153.311 37.4005 152.728 37.2092C152.145 37.0032 151.593 36.7236 151.115 36.3705C150.621 36.0026 150.203 35.5759 149.83 35.0756C149.471 34.5753 149.187 34.0162 149.008 33.3982H162.096C162.574 33.3982 162.992 33.2363 163.321 32.9126C163.665 32.5889 163.829 32.1622 163.829 31.6766C163.829 30.3817 163.605 29.1899 163.157 28.0863C162.694 26.9533 162.021 25.9527 161.11 25.0404ZM148.978 29.9109C149.157 29.3076 149.426 28.7484 149.785 28.2334C150.143 27.7332 150.577 27.2917 151.07 26.9386C151.563 26.5707 152.116 26.3059 152.713 26.0999C153.311 25.8939 153.923 25.8056 154.551 25.8056C155.178 25.8056 155.791 25.9086 156.374 26.0999C156.971 26.3059 157.509 26.5854 157.987 26.9386C158.48 27.3064 158.914 27.7332 159.272 28.2334C159.646 28.7337 159.915 29.2929 160.109 29.9109H148.978ZM179.233 23.4807C178.919 23.1864 178.531 22.951 178.068 22.7744C177.605 22.5979 177.082 22.4802 176.529 22.4213C175.976 22.3477 175.453 22.3183 174.96 22.3183C173.854 22.3183 172.824 22.4949 171.852 22.848C170.881 23.2012 169.985 23.7162 169.163 24.3783V24.0546C169.163 23.569 168.999 23.1717 168.655 22.8333C168.311 22.4949 167.923 22.3183 167.445 22.3183C166.967 22.3183 166.548 22.4949 166.22 22.8333C165.876 23.1717 165.712 23.5837 165.712 24.0546V39.2397C165.712 39.7253 165.876 40.1226 166.22 40.461C166.563 40.7995 166.967 40.976 167.445 40.976C167.923 40.976 168.326 40.7995 168.655 40.461C168.999 40.1226 169.163 39.7106 169.163 39.2397V31.6472C169.163 30.8379 169.312 30.0727 169.611 29.3664C169.91 28.6602 170.328 28.0422 170.851 27.5124C171.374 26.9827 171.987 26.5707 172.689 26.2617C173.391 25.9527 174.153 25.8056 174.96 25.8056C175.767 25.8056 176.529 25.9527 177.231 26.2176C177.5 26.3353 177.754 26.4089 177.963 26.4089C178.202 26.4089 178.426 26.3647 178.636 26.2764C178.845 26.1882 179.024 26.0557 179.188 25.9086C179.338 25.7467 179.472 25.5702 179.562 25.3494C179.652 25.1434 179.696 24.908 179.696 24.6726C179.696 24.1723 179.547 23.775 179.233 23.4807ZM104.932 25.0404C103.11 23.2159 100.913 22.3036 98.3882 22.3036C95.8632 22.3036 93.652 23.2159 91.8441 25.0404C90.0363 26.865 89.1398 29.0574 89.1398 31.6325C89.1398 34.2075 90.0512 36.3999 91.8441 38.2245C93.652 40.049 95.8333 40.9613 98.3882 40.9613C100.943 40.9613 103.11 40.049 104.932 38.2245C106.74 36.4293 107.637 34.2222 107.637 31.6325C107.622 30.3376 107.398 29.1457 106.949 28.0569C106.501 26.968 105.829 25.9527 104.932 25.0404ZM103.737 33.8985C103.438 34.6047 103.02 35.2227 102.497 35.7525C101.974 36.2822 101.361 36.7089 100.659 37.0179C99.957 37.3269 99.195 37.4887 98.3882 37.4887C97.5814 37.4887 96.8194 37.3416 96.1023 37.0179C95.4 36.7089 94.7875 36.2822 94.2645 35.7525C93.7416 35.2227 93.3382 34.6047 93.0394 33.8985C92.7406 33.1922 92.5912 32.427 92.5912 31.6325C92.5912 30.8379 92.7406 30.0727 93.0394 29.3664C93.3382 28.6602 93.7565 28.0422 94.2645 27.5124C94.7875 26.9827 95.4 26.5707 96.1023 26.247C96.8045 25.938 97.5665 25.7762 98.3882 25.7762C99.21 25.7762 99.9421 25.9233 100.659 26.247C101.361 26.556 101.974 26.9827 102.497 27.5124C103.02 28.0422 103.438 28.6602 103.737 29.3664C104.036 30.0727 104.185 30.8232 104.185 31.6177C104.185 32.427 104.036 33.1775 103.737 33.8985ZM143.42 24.0399C143.42 23.8044 143.375 23.5837 143.285 23.3777C143.196 23.1717 143.076 22.9804 142.912 22.8186C142.763 22.6567 142.568 22.5243 142.359 22.4507C142.15 22.3624 141.926 22.3183 141.687 22.3183C141.343 22.3183 141.029 22.4066 140.76 22.5832L130.87 29.0574V16.0647C130.87 15.5791 130.705 15.1671 130.362 14.8287C130.018 14.4903 129.63 14.3137 129.151 14.3137C128.673 14.3137 128.255 14.4903 127.926 14.8287C127.583 15.1671 127.418 15.5791 127.418 16.0647V39.2103C127.418 39.6959 127.583 40.1079 127.926 40.4463C128.27 40.7847 128.673 40.9613 129.151 40.9613C129.63 40.9613 130.033 40.7847 130.362 40.4463C130.705 40.1079 130.87 39.6959 130.87 39.2103V33.1922L132.887 31.8532L140.521 40.4905C140.835 40.7848 141.224 40.9319 141.672 40.9319C141.911 40.9319 142.135 40.8877 142.344 40.7995C142.553 40.7112 142.733 40.5787 142.897 40.4316C143.046 40.2697 143.181 40.0932 143.271 39.8725C143.36 39.6665 143.405 39.431 143.405 39.2103C143.405 38.7542 143.241 38.3569 142.927 37.989L135.845 29.9403L142.777 25.4083C143.211 25.114 143.42 24.6579 143.42 24.0399ZM114.719 27.4977C115.241 26.968 115.869 26.556 116.571 26.247C117.273 25.938 118.035 25.7909 118.842 25.7909C119.574 25.7909 120.247 25.9086 120.859 26.1587C121.472 26.4089 122.069 26.762 122.622 27.2329C122.951 27.4977 123.325 27.6302 123.743 27.6302C124.236 27.6302 124.654 27.4683 124.968 27.1299C125.297 26.7914 125.461 26.3794 125.461 25.8792C125.461 25.3789 125.267 24.9227 124.863 24.5696C123.16 23.054 121.158 22.3036 118.827 22.3036C116.272 22.3036 114.091 23.2159 112.283 25.0404C110.475 26.865 109.579 29.0574 109.579 31.6325C109.579 34.2075 110.49 36.3999 112.283 38.2245C114.091 40.049 116.272 40.9613 118.827 40.9613C121.143 40.9613 123.16 40.2109 124.863 38.6953C125.222 38.3275 125.416 37.9007 125.416 37.4152C125.416 36.9296 125.252 36.5029 124.923 36.1792C124.594 35.8555 124.191 35.6936 123.698 35.6936C123.28 35.7083 122.921 35.826 122.607 36.0615C122.055 36.547 121.472 36.9002 120.859 37.1356C120.247 37.371 119.574 37.4887 118.842 37.4887C118.035 37.4887 117.288 37.3416 116.571 37.0326C115.869 36.7236 115.241 36.3116 114.719 35.7819C114.196 35.2669 113.777 34.6342 113.464 33.9279C113.165 33.2216 113.015 32.4565 113.015 31.6472C113.015 30.8379 113.165 30.0727 113.464 29.3664C113.777 28.6454 114.196 28.0422 114.719 27.4977Z" fill="white"/>
</g>
<defs>
<clipPath id="clip0_327_1848">
<rect width="179.29" height="45.4672" fill="white" transform="translate(0.40625 0.953125)"/>
</clipPath>
</defs>
</svg>
