<svg width="140" height="45" viewBox="0 0 140 45" fill="none" xmlns="http://www.w3.org/2000/svg">
<g clip-path="url(#clip0_1689_16356)">
<path opacity="0.972" fill-rule="evenodd" clip-rule="evenodd" d="M52.2082 -0.0629883C52.9415 -0.0629883 53.6746 -0.0629883 54.4079 -0.0629883C57.0682 0.182044 59.4405 1.12742 61.5243 2.77315C60.6865 4.00784 59.8023 5.20531 58.8718 6.36558C57.1472 5.16809 55.2279 4.4538 53.114 4.22273C51.9284 4.17991 51.0441 4.64208 50.4615 5.60928C50.2218 6.63387 50.5884 7.36917 51.5613 7.81516C53.6179 8.48419 55.6882 9.11444 57.772 9.70592C61.8171 11.3921 63.0894 14.2703 61.589 18.3404C60.6877 20.1352 59.2428 21.2907 57.2544 21.8068C53.4043 22.6784 49.7814 22.1321 46.3857 20.1681C45.7222 19.7525 45.1184 19.2694 44.5742 18.7185C45.4841 17.5334 46.4545 16.3989 47.4855 15.3152C49.3833 16.8902 51.5829 17.7725 54.0844 17.9622C54.879 17.9139 55.6338 17.7249 56.3487 17.395C57.3582 16.523 57.4444 15.5987 56.6075 14.6219C56.126 14.3034 55.6085 14.0513 55.0548 13.8656C53.6861 13.4482 52.306 13.0701 50.9143 12.7311C46.0013 11.3734 44.3839 8.32722 46.0622 3.59247C46.8392 2.20545 47.9821 1.21806 49.491 0.630289C50.389 0.309188 51.2947 0.0780963 52.2082 -0.0629883Z" fill="black"/>
<path opacity="0.977" fill-rule="evenodd" clip-rule="evenodd" d="M30.213 0.0630407C31.7977 0.0224747 33.372 0.0644915 34.9358 0.189091C38.0628 7.37397 41.1896 14.5588 44.3166 21.7437C42.593 21.8907 40.8678 21.9117 39.141 21.8067C38.4301 20.2538 37.7831 18.6782 37.2001 17.0798C34.0936 17.0379 30.9882 17.0798 27.884 17.2059C27.2371 18.7185 26.5901 20.2311 25.9432 21.7437C24.2196 21.8907 22.4944 21.9117 20.7676 21.8067C23.9709 14.5785 27.1193 7.33063 30.213 0.0630407ZM32.4127 6.23951C32.6435 6.37486 32.7945 6.58494 32.8655 6.86976C33.7027 8.8341 34.5006 10.8089 35.2593 12.7941C33.4042 12.8152 31.5495 12.7941 29.6955 12.7311C30.6196 10.5736 31.5253 8.40975 32.4127 6.23951Z" fill="black"/>
<path opacity="0.971" fill-rule="evenodd" clip-rule="evenodd" d="M-0.0644531 0.315186C1.61762 0.315186 3.29969 0.315186 4.98176 0.315186C4.98176 3.13031 4.98176 5.94544 4.98176 8.76056C7.9146 8.76056 10.8474 8.76056 13.7803 8.76056C13.7803 5.94544 13.7803 3.13031 13.7803 0.315186C15.4623 0.315186 17.1444 0.315186 18.8265 0.315186C18.8265 7.50006 18.8265 14.6849 18.8265 21.8698C17.1444 21.8698 15.4623 21.8698 13.7803 21.8698C13.7803 19.0126 13.7803 16.1556 13.7803 13.2984C10.8474 13.2984 7.9146 13.2984 4.98176 13.2984C4.98176 16.1556 4.98176 19.0126 4.98176 21.8698C3.29969 21.8698 1.61762 21.8698 -0.0644531 21.8698C-0.0644531 14.6849 -0.0644531 7.50006 -0.0644531 0.315186Z" fill="black"/>
<path opacity="0.984" fill-rule="evenodd" clip-rule="evenodd" d="M64.8887 0.315186C66.5277 0.315186 68.1665 0.315186 69.8055 0.315186C69.8055 3.13031 69.8055 5.94544 69.8055 8.76056C72.7384 8.76056 75.6711 8.76056 78.604 8.76056C78.604 5.94544 78.604 3.13031 78.604 0.315186C80.2861 0.315186 81.9682 0.315186 83.6502 0.315186C83.6502 7.50006 83.6502 14.6849 83.6502 21.8698C81.9682 21.8698 80.2861 21.8698 78.604 21.8698C78.604 19.0126 78.604 16.1556 78.604 13.2984C75.6711 13.2984 72.7384 13.2984 69.8055 13.2984C69.8055 16.1556 69.8055 19.0126 69.8055 21.8698C68.1665 21.8698 66.5277 21.8698 64.8887 21.8698C64.8887 14.6849 64.8887 7.50006 64.8887 0.315186Z" fill="black"/>
<path opacity="0.975" fill-rule="evenodd" clip-rule="evenodd" d="M91.5427 0.315125C93.9152 0.294124 96.2875 0.315133 98.6592 0.37815C95.2285 3.74124 91.7782 7.08158 88.308 10.3992C87.1004 9.30672 85.9359 8.17226 84.8145 6.9958C87.06 4.76628 89.3027 2.5394 91.5427 0.315125Z" fill="black"/>
<path opacity="0.987" fill-rule="evenodd" clip-rule="evenodd" d="M100.342 0.315186C105.949 0.315186 111.556 0.315186 117.162 0.315186C117.162 1.74375 117.162 3.17233 117.162 4.6009C113.194 4.6009 109.227 4.6009 105.259 4.6009C105.259 6.02947 105.259 7.45805 105.259 8.88661C108.752 8.88661 112.246 8.88661 115.739 8.88661C115.739 10.3152 115.739 11.7438 115.739 13.1723C112.246 13.1723 108.752 13.1723 105.259 13.1723C105.259 14.643 105.259 16.1135 105.259 17.5841C109.27 17.5841 113.281 17.5841 117.292 17.5841C117.292 19.0126 117.292 20.4413 117.292 21.8698C111.642 21.8698 105.992 21.8698 100.342 21.8698C100.342 14.6849 100.342 7.50006 100.342 0.315186Z" fill="black"/>
<path opacity="0.979" fill-rule="evenodd" clip-rule="evenodd" d="M139.936 0.315123C139.936 0.357139 139.936 0.399157 139.936 0.441173C137.081 4.69733 134.257 8.98304 131.461 13.2983C131.396 16.1551 131.374 19.0123 131.396 21.8697C129.757 21.8697 128.118 21.8697 126.479 21.8697C126.501 19.0543 126.479 16.2392 126.415 13.4244C123.59 9.07563 120.764 4.72689 117.939 0.378148C119.88 0.294114 121.821 0.294114 123.762 0.378148C125.525 3.16177 127.272 5.95588 129.002 8.7605C130.732 5.95588 132.479 3.16177 134.243 0.378148C136.139 0.315134 138.038 0.294125 139.936 0.315123Z" fill="black"/>
<path opacity="0.978" fill-rule="evenodd" clip-rule="evenodd" d="M88.1786 11.9117C91.6827 15.1362 95.1332 18.4346 98.5298 21.8067C96.2008 21.8908 93.8718 21.8908 91.5427 21.8067C89.3 19.6219 87.0572 17.4369 84.8145 15.2521C85.962 14.1552 87.0834 13.0418 88.1786 11.9117Z" fill="black"/>
<path opacity="0.921" fill-rule="evenodd" clip-rule="evenodd" d="M105.518 29.8109C106.51 29.8109 107.502 29.8109 108.494 29.8109C108.494 30.6092 108.494 31.4076 108.494 32.2059C107.502 32.2059 106.51 32.2059 105.518 32.2059C105.518 31.4076 105.518 30.6092 105.518 29.8109Z" fill="black"/>
<path opacity="0.92" fill-rule="evenodd" clip-rule="evenodd" d="M126.09 29.8109C127.039 29.8109 127.988 29.8109 128.936 29.8109C128.936 33.9706 128.936 38.1302 128.936 42.2899C127.988 42.2899 127.039 42.2899 126.09 42.2899C126.09 38.1302 126.09 33.9706 126.09 29.8109Z" fill="black"/>
<path opacity="0.95" fill-rule="evenodd" clip-rule="evenodd" d="M77.5696 30.189C79.3414 29.9839 81.0235 30.2571 82.6159 31.0083C83.0452 31.3006 83.4333 31.6367 83.7804 32.0167C83.2739 32.7287 82.6917 33.38 82.0336 33.9705C81.415 33.4272 80.7033 33.028 79.8987 32.773C77.1883 32.4718 75.722 33.6483 75.4994 36.3025C75.722 38.9566 77.1883 40.1331 79.8987 39.8319C80.7525 39.5451 81.5074 39.1039 82.163 38.5083C82.7236 39.0545 83.2844 39.6008 83.8451 40.147C83.9314 40.2311 83.9314 40.315 83.8451 40.3991C82.1312 42.16 80.0393 42.8112 77.5696 42.3529C74.389 41.5387 72.7069 39.5219 72.5234 36.3025C72.769 33.1043 74.4511 31.0664 77.5696 30.189Z" fill="black"/>
<path opacity="0.964" fill-rule="evenodd" clip-rule="evenodd" d="M64.889 30.8193C66.8455 32.4942 68.7001 34.2799 70.4527 36.1765C68.6682 38.041 66.8352 39.8687 64.9537 41.6597C64.889 38.0464 64.8674 34.4331 64.889 30.8193Z" fill="black"/>
<path opacity="0.964" fill-rule="evenodd" clip-rule="evenodd" d="M110.434 30.8193C111.339 30.8193 112.245 30.8193 113.151 30.8193C113.151 31.5756 113.151 32.3319 113.151 33.0882C113.884 33.0882 114.617 33.0882 115.35 33.0882C115.35 33.8445 115.35 34.6008 115.35 35.3572C114.617 35.3572 113.884 35.3572 113.151 35.3572C113.094 36.8374 113.159 38.308 113.345 39.7689C114.01 40.109 114.657 40.067 115.286 39.6429C115.39 40.4306 115.369 41.2079 115.221 41.9748C113.924 42.557 112.63 42.557 111.339 41.9748C111.002 41.7305 110.765 41.4154 110.628 41.0294C110.442 39.146 110.377 37.2552 110.434 35.3572C110.088 35.3572 109.744 35.3572 109.398 35.3572C109.398 34.6008 109.398 33.8445 109.398 33.0882C109.744 33.0882 110.088 33.0882 110.434 33.0882C110.434 32.3319 110.434 31.5756 110.434 30.8193Z" fill="black"/>
<path opacity="0.945" fill-rule="evenodd" clip-rule="evenodd" d="M88.1795 32.9622C89.8987 32.7651 91.3436 33.2693 92.5141 34.4748C92.7901 34.9452 92.9626 35.4494 93.0317 35.9874C93.0964 38.0878 93.118 40.1887 93.0964 42.2899C92.1906 42.2899 91.2849 42.2899 90.3792 42.2899C90.4001 42.0344 90.3785 41.7823 90.3145 41.5336C88.9862 42.471 87.5413 42.66 85.9799 42.1009C84.4822 41.1215 84.0724 39.7979 84.7507 38.1303C85.6412 37.0064 86.8272 36.5022 88.3089 36.6177C89.0537 36.5906 89.7653 36.7166 90.4439 36.9958C90.4835 36.2139 90.1169 35.6888 89.3441 35.4202C88.1762 35.2536 87.0548 35.4007 85.9799 35.8614C85.6822 35.1803 85.4234 34.487 85.2036 33.7815C86.1715 33.3677 87.1636 33.0946 88.1795 32.9622ZM88.4383 38.2563C89.1375 38.2455 89.8061 38.3715 90.4439 38.6345C90.5139 39.8902 89.8885 40.5205 88.5677 40.5252C87.4095 40.4724 86.9999 39.9261 87.3385 38.8866C87.6488 38.5578 88.0153 38.3477 88.4383 38.2563Z" fill="black"/>
<path opacity="0.959" fill-rule="evenodd" clip-rule="evenodd" d="M97.3656 44.9369C96.4599 44.9369 95.5542 44.9369 94.6484 44.9369C94.6484 40.9874 94.6484 37.0377 94.6484 33.0882C95.5542 33.0882 96.4599 33.0882 97.3656 33.0882C97.3443 33.4686 97.3659 33.8468 97.4303 34.2226C98.3878 33.1003 99.617 32.7011 101.118 33.0252C103.389 33.7706 104.511 35.3253 104.482 37.689C104.362 40.9575 102.637 42.5121 99.3065 42.3529C98.5527 42.2063 97.9273 41.8491 97.4303 41.2815C97.3656 42.4992 97.3441 43.7178 97.3656 44.9369ZM99.0477 35.231C100.715 35.2377 101.621 36.0571 101.765 37.689C101.441 39.8194 100.276 40.4916 98.2714 39.7058C97.3731 38.8287 97.1358 37.7992 97.5597 36.6176C97.875 35.9528 98.3711 35.4907 99.0477 35.231Z" fill="black"/>
<path opacity="0.948" fill-rule="evenodd" clip-rule="evenodd" d="M119.62 32.9623C121.034 32.8431 122.328 33.1583 123.502 33.9076C124.015 34.4657 124.338 35.117 124.472 35.8614C124.537 38.0039 124.559 40.1467 124.537 42.29C123.674 42.29 122.812 42.29 121.949 42.29C121.97 41.9929 121.949 41.6988 121.885 41.4076C120.55 42.4726 119.062 42.7037 117.421 42.1009C115.73 40.8681 115.449 39.3765 116.58 37.6261C117.49 36.8755 118.546 36.5393 119.75 36.6177C120.494 36.5906 121.206 36.7167 121.885 36.9959C121.922 36.2078 121.555 35.6825 120.785 35.4202C119.635 35.2508 118.536 35.3979 117.485 35.8614C117.111 35.1877 116.895 34.4735 116.838 33.7186C117.742 33.3359 118.67 33.0838 119.62 32.9623ZM119.879 38.2564C120.584 38.2134 121.253 38.3394 121.885 38.6345C121.957 39.8882 121.331 40.5185 120.008 40.5253C118.857 40.4781 118.448 39.932 118.779 38.8866C119.089 38.5579 119.456 38.3478 119.879 38.2564Z" fill="black"/>
<path opacity="0.971" fill-rule="evenodd" clip-rule="evenodd" d="M105.646 33.0883C106.552 33.0883 107.458 33.0883 108.364 33.0883C108.364 36.1554 108.364 39.2228 108.364 42.2899C107.458 42.2899 106.552 42.2899 105.646 42.2899C105.646 39.2228 105.646 36.1554 105.646 33.0883Z" fill="black"/>
</g>
<defs>
<clipPath id="clip0_1689_16356">
<rect width="140" height="45" fill="white"/>
</clipPath>
</defs>
</svg>
