<svg width="93" height="28" viewBox="0 0 93 28" fill="none" xmlns="http://www.w3.org/2000/svg">
<g clip-path="url(#clip0_1125_246)">
<path d="M16.5914 7.61569C17.3546 6.85257 18.5973 6.85257 19.3605 7.61569C20.1238 8.37881 20.1238 9.62119 19.3605 10.3843C18.9184 10.8263 18.3134 11.0264 17.699 10.938C17.6711 10.9334 17.6385 10.9334 17.6106 10.938C17.4291 10.9147 17.2383 10.938 17.0568 11.0218C16.8009 11.1381 16.6193 11.3522 16.5309 11.5988C16.4425 11.8408 16.4471 12.1153 16.5635 12.3619C17.2197 13.7811 16.9172 15.4795 15.8096 16.587C14.7019 17.6944 13.0032 17.9969 11.5837 17.3407C11.3277 17.2244 11.0532 17.2198 10.8065 17.3128C10.5645 17.4013 10.3597 17.5827 10.2434 17.834C10.1689 17.9969 10.141 18.1644 10.1503 18.3318C10.1457 18.3645 10.1457 18.397 10.1503 18.4296C10.2527 19.0531 10.0479 19.6906 9.60114 20.1373C8.83789 20.9004 7.59528 20.9004 6.83203 20.1373C6.45971 19.765 6.25959 19.2765 6.25959 18.7506C6.25959 18.2295 6.46436 17.7363 6.83203 17.364C7.27415 16.922 7.87917 16.7219 8.4935 16.8103C8.5028 16.8103 8.51211 16.8103 8.52607 16.8103C8.59123 16.8242 8.65638 16.8336 8.72619 16.8336C8.87046 16.8336 9.01474 16.8056 9.1497 16.7405C9.40102 16.6241 9.57787 16.4194 9.67095 16.1821C9.76403 15.9355 9.76403 15.6563 9.64303 15.4004C8.98681 13.9812 9.28932 12.2827 10.397 11.1753C11.5047 10.0679 13.2033 9.76544 14.6228 10.4215C14.8741 10.5379 15.1533 10.5425 15.3954 10.4541C15.6374 10.3657 15.8468 10.1842 15.9631 9.93295C16.0515 9.73752 16.0748 9.52813 16.0423 9.32804V9.32339C15.9399 8.69987 16.1446 8.06238 16.5914 7.61569ZM14.6553 15.433C15.5024 14.5861 15.5024 13.2134 14.6553 12.3665C13.8083 11.5196 12.4354 11.5196 11.5883 12.3665C10.7414 13.2134 10.7414 14.5861 11.5883 15.433C12.4354 16.2799 13.8083 16.2799 14.6553 15.433ZM13.1056 0.798828C20.3425 0.798828 26.2111 6.66644 26.2111 13.9021C26.2111 21.1377 20.3472 27.01 13.1056 27.01C5.86401 27.01 0 21.1424 0 13.9021C0 6.66179 5.86866 0.798828 13.1056 0.798828ZM20.0912 11.1148C21.2501 9.95622 21.2501 8.081 20.0912 6.92236C18.9323 5.76373 17.0568 5.76373 15.898 6.92236C15.4698 7.35045 15.1999 7.88091 15.0881 8.43464C12.9892 7.6436 10.5785 8.14615 8.97286 9.75147C7.36723 11.3568 6.86461 13.7672 7.66043 15.8704C7.10196 15.9821 6.57141 16.252 6.13859 16.6847C4.97975 17.8433 4.97975 19.7185 6.13859 20.8771C7.29742 22.0358 9.17297 22.0358 10.3318 20.8771C10.7646 20.4444 11.0392 19.9047 11.1463 19.3463C11.7978 19.5883 12.4773 19.7092 13.1521 19.7092C14.6553 19.7092 16.14 19.1276 17.2429 18.0248C18.8393 16.4287 19.3466 14.0323 18.5694 11.9338C19.1231 11.8175 19.6584 11.5476 20.0912 11.1148Z" fill="#141414"/>
<path d="M33.8057 20.7861V7.47144H36.2176V13.1081H42.3875V7.47144H44.8059V20.7861H42.3875V15.13H36.2176V20.7861H33.8057Z" fill="#141414"/>
<path d="M51.1966 20.981C50.1954 20.981 49.3307 20.7729 48.6026 20.3569C47.8788 19.9365 47.3218 19.3427 46.9318 18.5756C46.5417 17.8041 46.3467 16.896 46.3467 15.8515C46.3467 14.8243 46.5417 13.9227 46.9318 13.1469C47.3261 12.3668 47.8767 11.7599 48.5831 11.3266C49.2896 10.8888 50.1196 10.6699 51.0731 10.6699C51.6885 10.6699 52.2693 10.7696 52.8154 10.969C53.3659 11.1641 53.8513 11.4674 54.2718 11.8791C54.6965 12.291 55.0302 12.8153 55.273 13.4525C55.5157 14.0853 55.6371 14.8394 55.6371 15.7149V16.4366H47.4519V14.8503H53.381C53.3767 14.3995 53.2793 13.9986 53.0885 13.6476C52.8978 13.2921 52.6313 13.0126 52.2888 12.8089C51.9508 12.6051 51.5564 12.5033 51.1056 12.5033C50.6245 12.5033 50.202 12.6203 49.8379 12.8544C49.4737 13.0841 49.1899 13.3875 48.9862 13.7645C48.7868 14.1373 48.685 14.5469 48.6806 14.9933V16.3781C48.6806 16.9589 48.7868 17.4573 48.9991 17.8734C49.2115 18.2851 49.5084 18.6015 49.8899 18.8226C50.2713 19.0393 50.7177 19.1476 51.2291 19.1476C51.5716 19.1476 51.8814 19.0999 52.1588 19.0046C52.4362 18.9049 52.6767 18.7597 52.8805 18.569C53.0841 18.3783 53.238 18.1421 53.342 17.8604L55.5395 18.1074C55.4008 18.6882 55.1364 19.1953 54.7464 19.6287C54.3606 20.0578 53.8665 20.3916 53.2641 20.6299C52.6615 20.864 51.9724 20.981 51.1966 20.981Z" fill="#141414"/>
<path d="M59.4325 7.47144V20.7861H57.0791V7.47144H59.4325Z" fill="#141414"/>
<path d="M61.3032 20.7859V10.7999H63.6566V20.7859H61.3032ZM62.4864 9.38265C62.1137 9.38265 61.793 9.25912 61.5242 9.01208C61.2555 8.76069 61.1211 8.45947 61.1211 8.10839C61.1211 7.75298 61.2555 7.45176 61.5242 7.20471C61.793 6.95332 62.1137 6.82764 62.4864 6.82764C62.8634 6.82764 63.1843 6.95332 63.4486 7.20471C63.7173 7.45176 63.8517 7.75298 63.8517 8.10839C63.8517 8.45947 63.7173 8.76069 63.4486 9.01208C63.1843 9.25912 62.8634 9.38265 62.4864 9.38265Z" fill="#141414"/>
<path d="M71.8931 16.5862V10.8H74.2466V20.786H71.9647V19.0112H71.8606C71.6352 19.5703 71.2647 20.0276 70.7489 20.3829C70.2374 20.7383 69.6068 20.9161 68.857 20.9161C68.2025 20.9161 67.6239 20.7708 67.1211 20.4805C66.6227 20.1858 66.2326 19.7589 65.9509 19.1997C65.6692 18.6363 65.5283 17.9558 65.5283 17.1583V10.8H67.8818V16.7942C67.8818 17.427 68.0552 17.9298 68.4019 18.3025C68.7486 18.6753 69.2038 18.8617 69.7672 18.8617C70.1139 18.8617 70.4499 18.7771 70.7749 18.6081C71.0999 18.4391 71.3665 18.1877 71.5745 17.854C71.7869 17.5158 71.8931 17.0933 71.8931 16.5862Z" fill="#141414"/>
<path d="M76.1172 20.7859V10.8H78.3666V12.4968H78.4836C78.6917 11.9247 79.0363 11.4782 79.5174 11.1575C79.9984 10.8325 80.5727 10.6699 81.2402 10.6699C81.9163 10.6699 82.4863 10.8346 82.9501 11.1641C83.4181 11.4891 83.7475 11.9333 83.9382 12.4968H84.0423C84.2632 11.942 84.6361 11.5 85.1604 11.1705C85.6892 10.8368 86.3155 10.6699 87.0393 10.6699C87.9582 10.6699 88.708 10.9603 89.2888 11.5411C89.8696 12.1219 90.1599 12.9692 90.1599 14.0831V20.7859H87.8V14.4472C87.8 13.8274 87.6353 13.3745 87.3059 13.0884C86.9766 12.798 86.5735 12.6528 86.0967 12.6528C85.5288 12.6528 85.0846 12.8305 84.7639 13.1859C84.4475 13.537 84.2893 13.9942 84.2893 14.5577V20.7859H81.9814V14.3497C81.9814 13.8339 81.8253 13.4222 81.5132 13.1144C81.2055 12.8067 80.8025 12.6528 80.3041 12.6528C79.9659 12.6528 79.6582 12.7395 79.3808 12.9129C79.1034 13.082 78.8824 13.3224 78.7176 13.6345C78.553 13.9422 78.4706 14.302 78.4706 14.7137V20.7859H76.1172Z" fill="#141414"/>
</g>
</svg>
