<svg width="72" height="72" viewBox="0 0 72 72" fill="none" xmlns="http://www.w3.org/2000/svg">
<circle cx="36" cy="36" r="35" stroke="black" stroke-width="2"/>
<g clip-path="url(#clip0_1179_15213)">
<path d="M35.0673 52.1926L35.0446 37.6106L37.5286 37.6109V52.215L35.0673 52.1926ZM20.2817 35.1225C20.4463 31.4977 21.6607 28.3381 23.9248 25.6434C26.1891 22.9485 29.0164 21.1962 32.4068 20.3863C31.6392 21.0451 30.9397 21.901 30.3082 22.954C29.6765 24.0072 29.1246 25.1869 28.6524 26.4931C28.1802 27.7993 27.7919 29.1931 27.4874 30.6745C27.183 32.1558 26.9658 33.6385 26.836 35.1225L20.2817 35.1225ZM29.2611 35.1222C29.2988 33.3198 29.5416 31.5819 29.9894 29.9084C30.4374 28.2351 30.9977 26.7466 31.6703 25.4428C32.3426 24.1387 33.089 23.0916 33.9094 22.3014C34.7299 21.5112 35.5374 21.1161 36.3321 21.1161C37.1388 21.1042 37.9517 21.494 38.7708 22.2855C39.5896 23.0773 40.3345 24.1281 41.0052 25.438C41.676 26.748 42.2286 28.2426 42.6631 29.922C43.0976 31.6014 43.3337 33.3348 43.3714 35.1222L29.2611 35.1222ZM45.7962 35.1222C45.6785 33.6657 45.4651 32.2066 45.156 30.7449C44.847 29.2829 44.4682 27.9008 44.0196 26.5986C43.5708 25.2961 43.0412 24.1115 42.4309 23.0448C41.8205 21.9782 41.139 21.1155 40.3865 20.4565C43.7103 21.3329 46.4839 23.1101 48.7074 25.7881C50.9307 28.4662 52.1405 31.5776 52.3369 35.1222L45.7962 35.1222Z" fill="black"/>
</g>
<defs>
<clipPath id="clip0_1179_15213">
<rect width="40" height="40" fill="white" transform="translate(36.2842 5) rotate(45)"/>
</clipPath>
</defs>
</svg>
