<svg width="183" height="29" viewBox="0 0 183 29" fill="none" xmlns="http://www.w3.org/2000/svg">
<path d="M17.0886 0.0401718C20.2622 -0.173436 23.4969 0.46738 26.3348 1.90161C30.5459 3.97665 33.9026 7.69954 35.4589 12.0938C36.1608 14.0468 36.527 16.0913 36.527 18.1663V25.8257C36.527 26.1309 36.527 26.4665 36.4659 26.7717C36.2828 27.5346 35.7336 28.2364 35.0012 28.5721C34.4824 28.8162 33.9026 28.8467 33.3839 28.7552C32.2243 28.5416 31.3088 27.443 31.3088 26.2529C31.3088 23.8727 31.3088 21.4925 31.3088 19.1123C31.3393 18.441 31.3393 17.7086 30.9732 17.1288C30.3934 16.0303 28.9286 15.5115 27.7996 15.9692C26.8231 16.3049 26.1212 17.3119 26.0907 18.3494C26.0907 20.7601 26.0907 23.1709 26.0907 25.5816C26.0907 26.0393 26.1212 26.497 25.9686 26.9243C25.7245 27.7787 25.0226 28.45 24.1682 28.6942C23.0391 28.9993 21.7575 28.5111 21.2082 27.4735C20.8115 26.8632 20.842 26.1003 20.8726 25.3985C20.8726 22.9878 20.8726 20.6076 20.8726 18.1968C20.842 16.9762 19.835 15.8777 18.6449 15.7251C17.8515 15.603 17.0276 15.8777 16.4478 16.4269C15.9291 16.9152 15.6544 17.6171 15.6544 18.3189V25.3069C15.6544 25.8867 15.7154 26.497 15.5018 27.0463C15.1662 28.0533 14.1592 28.7857 13.0911 28.7552C11.9926 28.8162 10.9245 28.0533 10.5889 27.0463C10.4058 26.5276 10.4363 26.0088 10.4363 25.4595C10.4363 23.0488 10.4363 20.6381 10.4363 18.2274C10.4363 17.0373 9.4903 15.9387 8.33071 15.7251C7.26267 15.5115 6.10308 16.0302 5.55381 17.0067C5.3402 17.4034 5.21814 17.8612 5.21814 18.3189V26.1614C5.21814 26.9243 4.88247 27.6871 4.30267 28.1754C3.41773 28.9383 1.9835 28.9993 1.06804 28.2974C0.3967 27.8397 0 27.0463 0 26.2224V18.2884C0 15.2979 0.762886 12.3074 2.19711 9.65253C3.3567 7.48594 4.97401 5.56346 6.89649 4.03768C9.73442 1.65748 13.3658 0.25378 17.0886 0.0401718Z" fill="black"/>
<path d="M88.4016 9.22529H84.4346C84.5872 6.44839 85.167 3.94612 87.6998 2.35932C90.2326 0.803035 93.0095 0.43685 95.9084 0.680973C97.4647 0.803035 99.021 1.13871 100.455 1.81005C102.988 2.96963 104.239 4.95313 104.239 7.73004C104.239 12.643 104.239 17.556 104.239 22.469C104.239 24.2694 104.605 24.6051 106.406 24.422C106.589 24.3915 106.802 24.3609 106.986 24.3304C107.016 24.422 107.016 24.5135 107.016 24.5746V27.5651C105.582 28.0533 104.117 28.2059 102.683 27.8092C101.615 27.504 100.943 26.7411 100.577 25.7341C100.394 25.2154 100.272 24.6661 100.12 24.0863C99.967 24.2694 99.8449 24.422 99.6924 24.5746C96.5493 27.7482 92.8264 29.0908 88.4322 27.9618C85.3196 27.1684 83.1835 24.3304 83.092 21.0958C83.0614 20.0583 83.153 19.0207 83.3971 18.0137C83.9769 15.6946 85.6247 14.2909 87.6998 13.3449C89.1645 12.6735 90.7513 12.4904 92.3381 12.2768C94.1996 12.0327 96.0305 11.8191 97.8919 11.5445C99.1431 11.3614 99.7839 10.69 99.967 9.4389C100.364 6.90612 99.2346 5.22778 96.7934 4.61747C95.3286 4.25128 93.8334 4.19025 92.3381 4.46489C90.141 4.86159 88.9204 6.11273 88.4932 8.27932C88.5237 8.58447 88.4627 8.88962 88.4016 9.22529ZM100.089 14.1078C98.2581 15.0843 96.4882 15.3284 94.6878 15.603C93.1926 15.8471 91.6668 16.0608 90.2021 16.5185C88.2796 17.1593 87.3946 18.7461 87.5777 20.8822C87.7303 22.6521 88.9204 24.0863 90.8429 24.3915C93.8029 24.8797 96.4272 24.0558 98.5022 21.8587C99.1125 21.2179 99.6008 20.3024 99.7229 19.448C99.9975 17.7391 99.967 15.9997 100.089 14.1078ZM156.634 19.2344C156.543 19.6616 156.482 20.0278 156.39 20.3634C154.681 25.5816 151.202 27.8092 146.991 28.2974C139.698 29.0908 135.517 24.3304 134.449 19.2649C133.595 15.2368 133.717 11.2393 135.487 7.4554C137.165 3.8851 139.851 1.5354 143.848 0.83355C148.639 -0.0208818 155.414 2.35932 156.543 9.8356C156.848 11.7581 156.909 13.7416 157.092 15.7556H138.538C138.691 18.502 139.118 21.0653 141.132 23.0488C141.956 23.8727 143.024 24.2694 144.184 24.483C147.937 25.1543 151.05 23.3539 152.27 19.7226C152.392 19.3259 152.576 19.2038 152.972 19.2344C154.162 19.2344 155.352 19.2344 156.634 19.2344ZM138.691 12.2158H152.576C152.423 10.5985 152.148 9.10323 151.385 7.69952C150.653 6.35684 149.585 5.38035 148.12 4.89211C143.329 3.24427 138.386 7.0587 138.691 12.2158ZM166.613 27.4125H162.402V1.23026H166.399V4.89211C166.704 4.55644 166.887 4.34283 167.07 4.12922C169.939 0.864071 173.54 0.00963545 177.629 1.01664C180.467 1.7185 182.053 3.73252 182.603 6.53994C182.816 7.69952 182.969 8.88963 182.969 10.0492C182.999 15.664 182.999 21.2789 182.999 26.8937C182.999 27.0463 182.969 27.1989 182.969 27.382H178.666V26.6801C178.666 21.4315 178.697 16.1828 178.636 10.9342C178.636 9.77457 178.453 8.58447 178.117 7.4554C177.568 5.62448 176.103 4.64798 174.18 4.55644C170.671 4.43437 167.894 6.29581 167.04 9.40839C166.735 10.5375 166.643 11.7276 166.643 12.9177C166.613 17.5255 166.613 22.1028 166.613 26.6496V27.4125ZM111.105 1.23026H115.164V12.3379C115.408 12.0937 115.56 11.9717 115.713 11.8191C119.039 8.43189 122.365 5.01417 125.691 1.62695C125.966 1.3218 126.241 1.19974 126.668 1.19974C128.224 1.23025 129.811 1.19974 131.52 1.19974C131.276 1.44386 131.154 1.59644 131.001 1.74901C128.072 4.67849 125.173 7.63849 122.213 10.5375C121.877 10.8731 121.877 11.0867 122.091 11.4529C125.295 16.549 128.468 21.6451 131.642 26.7412C131.764 26.9242 131.856 27.1073 132.008 27.382C131.795 27.4125 131.642 27.4125 131.459 27.4125C129.994 27.4125 128.56 27.4125 127.095 27.4125C126.698 27.4125 126.515 27.2599 126.302 26.9548C123.861 22.8657 121.419 18.7766 118.978 14.657C118.856 14.4739 118.764 14.2909 118.612 14.0773C117.483 15.2063 116.384 16.2744 115.286 17.4034C115.133 17.556 115.103 17.8306 115.103 18.0443C115.103 20.9127 115.103 23.7812 115.103 26.6496V27.382C114.309 27.382 113.516 27.382 112.753 27.382C112.204 27.382 111.441 27.5345 111.136 27.2294C110.861 26.9853 111.014 26.1919 111.014 25.6426V1.93211C111.105 1.77953 111.105 1.53541 111.105 1.23026ZM64.2639 1.19974C60.9683 4.46489 57.7642 7.66901 54.5295 10.8731C58.0083 16.4269 61.3955 21.8587 64.8437 27.4125C64.5691 27.4125 64.386 27.443 64.2029 27.443C62.7992 27.443 61.365 27.443 59.9613 27.443C59.5646 27.443 59.3204 27.2904 59.1068 26.9548C56.6656 22.8657 54.2244 18.7766 51.7831 14.657C51.6916 14.4739 51.5695 14.3214 51.417 14.0773C50.8066 14.7181 50.2574 15.4199 49.586 15.9082C48.2128 16.9457 47.8161 18.2273 47.9077 19.9362C48.0603 22.1638 47.9382 24.422 47.9382 26.6496V27.382H43.9102V1.23026H47.9382V12.1548C48.0297 12.2158 48.1213 12.2768 48.1823 12.3379C48.3044 12.1548 48.3654 11.9412 48.4875 11.7886C51.7831 8.40138 55.1093 5.04468 58.405 1.62695C58.7101 1.3218 58.9848 1.16922 59.4425 1.19974C60.8157 1.23025 62.1889 1.19974 63.5621 1.19974C63.7757 1.19974 63.9588 1.19974 64.2639 1.19974ZM72.32 5.56344C74.3645 2.57293 76.5311 0.0706718 80.5592 0.803042V5.2888C79.4911 5.34983 78.4231 5.31932 77.4161 5.53293C74.9443 6.05169 73.0219 8.30983 72.6252 11.0562C72.5641 11.6055 72.5031 12.1548 72.5031 12.7041C72.5031 17.3729 72.5031 22.0418 72.5031 26.7106V27.443H68.353V1.29128H72.32C72.32 2.66448 72.32 4.03767 72.32 5.56344Z" fill="black"/>
</svg>
