<svg width="105" height="28" viewBox="0 0 105 28" fill="none" xmlns="http://www.w3.org/2000/svg">
<path d="M31.0342 22.4279V16.3533C31.6909 17.2681 32.9575 17.8309 34.3882 17.8309C37.8593 17.8309 40.0875 15.3448 40.0875 11.7329C40.0875 8.12091 38.0001 5.6348 34.5993 5.6348C33.0278 5.6348 31.7378 6.2915 31.0342 7.30003V5.82243H28.1729V22.4279H31.0342ZM34.0597 15.3448C32.1131 15.3448 30.8465 13.9141 30.8465 11.7329C30.8465 9.55162 32.1131 8.1209 34.0597 8.1209C35.9595 8.1209 37.2261 9.55162 37.2261 11.7329C37.2261 13.9141 35.9595 15.3448 34.0597 15.3448ZM46.0618 5.6348C42.9894 5.6348 40.9958 7.46423 40.855 9.80965H43.435C43.482 8.7542 44.3966 7.79259 45.9211 7.79259C47.4456 7.79259 48.3368 8.61352 48.3368 9.7627C48.3368 10.2318 48.0554 10.5601 47.4691 10.5601H45.2879C42.6375 10.5601 40.855 11.9908 40.855 14.2894C40.855 16.3298 42.4499 17.8309 44.7954 17.8309C46.484 17.8309 47.8444 17.057 48.3368 15.8842V17.6433H51.1748V10.0442C51.1748 7.37044 49.064 5.6348 46.0618 5.6348ZM45.4756 15.6966C44.3966 15.6966 43.6461 15.0868 43.6461 14.172C43.6461 13.1401 44.4669 12.4599 45.6866 12.4599H48.3368V12.6475C48.3368 14.43 47.2815 15.6966 45.4756 15.6966ZM60.1669 5.82243H58.7831C57.2586 5.82243 56.3439 6.40878 55.7576 7.90983V5.82243H52.8727V17.6433H55.7576V12.0612C55.7576 9.80965 56.4846 8.23819 58.3141 8.23819H60.1669V5.82243ZM65.6118 5.6348C62.5397 5.6348 60.546 7.46423 60.4054 9.80965H62.9855C63.0322 8.7542 63.9467 7.79259 65.4715 7.79259C66.9957 7.79259 67.8869 8.61352 67.8869 9.7627C67.8869 10.2318 67.6062 10.5601 67.0191 10.5601H64.8382C62.1876 10.5601 60.4054 11.9908 60.4054 14.2894C60.4054 16.3298 61.9999 17.8309 64.3457 17.8309C66.0345 17.8309 67.3945 17.057 67.8869 15.8842V17.6433H70.7256V10.0442C70.7256 7.37044 68.6142 5.6348 65.6118 5.6348ZM65.0258 15.6966C63.9467 15.6966 63.1962 15.0868 63.1962 14.172C63.1962 13.1401 64.0172 12.4599 65.2371 12.4599H67.8869V12.6475C67.8869 14.43 66.8315 15.6966 65.0258 15.6966ZM75.4482 17.6433V0.756348H72.5873V17.6433H75.4482ZM80.5167 17.6433V0.756348H77.6551V17.6433H80.5167ZM87.2758 5.6348C84.2039 5.6348 82.2099 7.46423 82.0691 9.80965H84.6494C84.6961 8.7542 85.6105 7.79259 87.1356 7.79259C88.6598 7.79259 89.5509 8.61352 89.5509 9.7627C89.5509 10.2318 89.2691 10.5601 88.6832 10.5601H86.5023C83.8512 10.5601 82.0691 11.9908 82.0691 14.2894C82.0691 16.3298 83.6641 17.8309 86.0093 17.8309C87.6987 17.8309 89.0586 17.057 89.5509 15.8842V17.6433H92.3885V10.0442C92.3885 7.37044 90.2777 5.6348 87.2758 5.6348ZM86.6901 15.6966C85.6105 15.6966 84.8598 15.0868 84.8598 14.172C84.8598 13.1401 85.6814 12.4599 86.9005 12.4599H89.5509V12.6475C89.5509 14.43 88.4955 15.6966 86.6901 15.6966ZM100.213 11.4749L104.177 5.82243H101.011L98.6653 9.22331L96.296 5.82243H93.154L97.0936 11.4749L92.8253 17.6433H95.8979L98.6653 13.703L101.433 17.6433H104.482L100.213 11.4749Z" fill="#212121"/>
<path d="M18.9355 17.4734C18.9355 17.6162 18.8942 17.7527 18.8194 17.8701H10.9588C10.0242 17.8701 9.26648 18.6277 9.26648 19.5625V24.3165H2.82031V17.8701H7.57413C8.50881 17.8701 9.26648 17.1124 9.26648 16.1776V8.2002H18.1949C18.6032 8.2002 18.9355 8.53237 18.9355 8.9407V17.4734Z" fill="#212121"/>
<path d="M0.000686942 27.1349V18.9796L3.93166 15.0486H6.44683V9.31048L10.3778 5.37939H19.8064C20.8812 5.37939 21.7555 6.25373 21.7555 7.32842V15.8604C21.7555 16.2331 21.6492 16.5955 21.448 16.9091L21.3774 17.019L17.7078 20.6885H12.0859V23.2039L8.15499 27.1349H0.000686942Z" fill="#212121"/>
<path d="M20.4656 7.32935V15.8614C20.4656 16.0042 20.4245 16.1407 20.3496 16.258H12.4891C11.5544 16.258 10.7967 17.0157 10.7967 17.9505V22.7045H4.35059V16.258H9.10438C10.0391 16.258 10.7967 15.5004 10.7967 14.5657V6.58887H19.7251C20.1335 6.58887 20.4656 6.92104 20.4656 7.32935Z" fill="#FCFCF7"/>
</svg>
