<svg width="162" height="41" viewBox="0 0 162 41" fill="none" xmlns="http://www.w3.org/2000/svg">
<g clip-path="url(#clip0_327_1850)">
<path fill-rule="evenodd" clip-rule="evenodd" d="M6.99896 0.279297H33.8714C35.6603 0.278786 37.3764 0.978938 38.6415 2.22568C39.9066 3.47242 40.6175 5.16357 40.6175 6.92699V33.4134C40.6175 37.086 37.5971 40.0631 33.8714 40.0631H6.99896C3.27398 40.062 0.254883 37.0853 0.254883 33.4134V6.92699C0.254883 3.25556 3.2743 0.279297 6.99896 0.279297ZM31.1553 32.8306C32.3309 32.8306 33.284 31.8911 33.284 30.7323L33.2781 9.61191C33.2781 8.45313 32.3251 7.51376 31.1495 7.51376H9.72476C9.1599 7.51376 8.61819 7.73509 8.21895 8.12898C7.81971 8.52288 7.59569 9.05705 7.5962 9.61384V30.7323C7.5962 31.8911 8.54919 32.8306 9.72476 32.8306H31.1553Z" fill="white"/>
<path d="M16.1535 25.5651C15.4825 25.5598 14.9414 25.0222 14.9414 24.3607V15.9295C14.9399 15.609 15.0679 15.3012 15.2972 15.0741C15.5266 14.8469 15.8383 14.7192 16.1633 14.7192H24.7286C25.0535 14.7197 25.3648 14.8476 25.5942 15.0746C25.8233 15.3017 25.9515 15.6092 25.9504 15.9295V24.3587C25.9515 24.679 25.8233 24.9866 25.5942 25.2135C25.3648 25.4407 25.0535 25.5685 24.7286 25.5691L16.1535 25.5651Z" fill="white"/>
<path d="M61.155 18.3983C59.9057 18.0625 58.7229 17.7459 57.8045 17.3425C56.1048 16.5936 55.3137 15.5551 55.3137 14.0766C55.3137 11.2816 58.0551 10.0231 60.785 10.0231C63.3794 10.0231 65.6451 11.0809 67.1667 12.9995L67.2704 13.1308L69.4636 11.4399L69.3579 11.3086C67.3351 8.77233 64.3391 7.38257 60.918 7.38257C58.6407 7.38257 56.5532 7.98866 55.0435 9.09081C53.3438 10.3165 52.4468 12.0942 52.4468 14.2155C52.4468 19.1473 57.1582 20.3497 60.9455 21.3168C64.7777 22.3129 67.1256 23.0695 67.1256 25.9493C67.1256 28.7848 64.7992 30.6166 61.2 30.6166C59.4201 30.6166 56.1244 30.1515 54.0526 27.0323L53.9567 26.8855L51.6499 28.532L51.74 28.6653C53.6982 31.5876 57.078 33.265 61.0238 33.265C66.3834 33.265 69.9865 30.2826 69.9865 25.8471C69.9865 20.7705 65.087 19.456 61.155 18.3983Z" fill="white"/>
<path fill-rule="evenodd" clip-rule="evenodd" d="M87.4697 17.3733V14.7038H90.0485V40.0592H87.4697V30.1532C85.9971 32.1433 83.7882 33.2319 81.1916 33.2319C76.2883 33.2319 72.8613 29.3619 72.8613 23.7739C72.8613 18.1859 76.296 14.2849 81.1916 14.2849C83.7706 14.2849 85.9794 15.3793 87.4697 17.3733ZM75.5794 23.743C75.5794 28.9159 78.5852 30.7594 81.3991 30.7594L81.4049 30.7612C85.0884 30.7612 87.4697 27.9818 87.4697 23.743C87.4697 19.5042 85.0845 16.7633 81.3991 16.7633C77.1087 16.7633 75.5794 20.3689 75.5794 23.743Z" fill="white"/>
<path d="M107.098 14.7039V24.712C107.098 28.2155 104.664 30.7595 101.312 30.7595C98.5273 30.7595 97.1723 29.1303 97.1723 25.7814V14.7039H94.5933V26.3006C94.5933 30.6436 96.9881 33.2358 100.998 33.2358C103.497 33.2358 105.643 32.1917 107.1 30.2826V32.8228H109.679V14.7039H107.098Z" fill="white"/>
<path fill-rule="evenodd" clip-rule="evenodd" d="M114.536 16.607C116.437 15.1343 119.018 14.2908 121.613 14.2908C125.711 14.2908 128.157 16.3001 128.149 19.6703V32.8268H125.568V30.8173C124.266 32.4251 122.382 33.2398 119.958 33.2398C116.008 33.2398 113.553 31.1106 113.553 27.6865C113.553 23.2334 117.81 22.5347 119.623 22.2374C119.919 22.1893 120.224 22.143 120.53 22.0965L120.541 22.0949C123.019 21.7189 125.576 21.3311 125.576 19.2592C125.576 16.9139 122.488 16.7325 121.542 16.7325C119.872 16.7325 117.512 17.2208 115.909 18.5912L115.762 18.7167L114.414 16.7016L114.536 16.607ZM116.245 27.5437C116.245 30.4468 119.018 30.7613 120.211 30.7613C122.804 30.7613 125.58 29.3987 125.574 25.5691V22.9477C124.316 23.7309 122.526 24.0369 120.929 24.3098L120.902 24.3145L120.101 24.4553C117.544 24.9224 116.245 25.5246 116.245 27.5437Z" fill="white"/>
<path d="M143.09 15.0456C142.478 14.6151 141.512 14.3584 140.506 14.3584C138.437 14.3852 136.502 15.368 135.279 17.0125V14.6962H132.7V32.8133H135.279V23.1236C135.279 18.8269 137.729 16.9024 140.155 16.9024C140.865 16.8931 141.568 17.0401 142.213 17.3329L142.387 17.4236L143.204 15.1189L143.09 15.0456Z" fill="white"/>
<path fill-rule="evenodd" clip-rule="evenodd" d="M143.846 23.8125C143.846 18.2072 147.392 14.2908 152.462 14.2908C157.346 14.2908 160.759 17.7671 160.749 22.7528C160.748 23.1862 160.724 23.6192 160.677 24.0499L160.661 24.1986H146.562C146.627 28.1883 149.063 30.7613 152.801 30.7613C154.943 30.7613 156.8 29.9025 158.027 28.3408L158.139 28.1981L160.007 29.8386L159.903 29.9622C158.662 31.4542 156.398 33.234 152.658 33.234C147.39 33.234 143.846 29.4488 143.846 23.8125ZM152.392 16.7306C149.241 16.7306 147.007 18.7746 146.658 21.9577H158.024C157.8 19.3981 156.214 16.7306 152.392 16.7306Z" fill="white"/>
</g>
<defs>
<clipPath id="clip0_327_1850">
<rect width="161.442" height="39.7838" fill="white" transform="translate(0.254883 0.279297)"/>
</clipPath>
</defs>
</svg>
