<svg width="72" height="72" viewBox="0 0 72 72" fill="none" xmlns="http://www.w3.org/2000/svg">
<circle cx="36" cy="36" r="35" stroke="black" stroke-width="2"/>
<path d="M34.7503 43.9167H37.2503V34.3334H34.7503V43.9167ZM36.0003 31.4809C36.3817 31.4809 36.7014 31.3519 36.9595 31.0938C37.2175 30.8358 37.3466 30.5161 37.3466 30.1347C37.3466 29.7533 37.2175 29.4336 36.9595 29.1755C36.7014 28.9177 36.3817 28.7888 36.0003 28.7888C35.6189 28.7888 35.2992 28.9177 35.0412 29.1755C34.7831 29.4336 34.6541 29.7533 34.6541 30.1347C34.6541 30.5161 34.7831 30.8358 35.0412 31.0938C35.2992 31.3519 35.6189 31.4809 36.0003 31.4809ZM36.0032 51.8334C33.8132 51.8334 31.7548 51.4179 29.8278 50.5867C27.9009 49.7556 26.2248 48.6277 24.7995 47.203C23.3742 45.7783 22.2457 44.1029 21.4141 42.1767C20.5827 40.2506 20.167 38.1927 20.167 36.003C20.167 33.813 20.5825 31.7545 21.4137 29.8276C22.2448 27.9006 23.3727 26.2245 24.7974 24.7992C26.2221 23.374 27.8975 22.2455 29.8237 21.4138C31.7498 20.5824 33.8077 20.1667 35.9974 20.1667C38.1874 20.1667 40.2459 20.5823 42.1728 21.4134C44.0998 22.2445 45.7759 23.3724 47.2012 24.7972C48.6264 26.2219 49.7549 27.8973 50.5866 29.8234C51.418 31.7495 51.8337 33.8074 51.8337 35.9972C51.8337 38.1872 51.4181 40.2456 50.587 42.1726C49.7559 44.0995 48.628 45.7756 47.2032 47.2009C45.7785 48.6262 44.1031 49.7547 42.177 50.5863C40.2509 51.4177 38.193 51.8334 36.0032 51.8334Z" fill="black"/>
</svg>
