<svg width="116" height="22" viewBox="0 0 116 22" fill="none" xmlns="http://www.w3.org/2000/svg">
<path d="M13.2637 19.8203H16.7821C17.7428 19.8203 18.664 19.4445 19.3433 18.7755C20.0226 18.1065 20.4042 17.1991 20.4042 16.253V12.7869" stroke="black" stroke-width="2.33739" stroke-linecap="round"/>
<path d="M13.2578 19.8132V16.355C13.2578 15.8855 13.3517 15.4206 13.5341 14.9868C13.7166 14.5531 13.9839 14.1589 14.321 13.8269C14.6581 13.495 15.0583 13.2316 15.4987 13.0519C15.9391 12.8723 16.4111 12.7798 16.8879 12.7798H20.3983" stroke="black" stroke-width="2.33739" stroke-linecap="round"/>
<path d="M11.1689 11.8458L13.6569 9.35778C14.3361 8.67857 14.7219 7.76133 14.7291 6.80799C14.7364 5.85458 14.3646 4.94317 13.6956 4.27416L11.2447 1.82324" stroke="black" stroke-width="2.33739" stroke-linecap="round"/>
<path d="M11.16 11.8458L8.71464 9.40041C8.38267 9.06844 8.12028 8.67329 7.94259 8.23758C7.76484 7.80188 7.67527 7.3341 7.67881 6.86097C7.68242 6.38791 7.77921 5.91867 7.96356 5.48025C8.14791 5.04175 8.41635 4.64258 8.75339 4.3055L11.2357 1.82324" stroke="black" stroke-width="2.33739" stroke-linecap="round"/>
<path d="M9.14737 19.8132V16.355C9.14737 15.8855 9.05343 15.4206 8.87102 14.9868C8.68861 14.5531 8.42122 14.1589 8.08411 13.8269C7.74708 13.495 7.34685 13.2316 6.90643 13.0519C6.466 12.8723 5.99398 12.7798 5.51728 12.7798H2.00684" stroke="black" stroke-width="2.33739" stroke-linecap="round"/>
<path d="M9.14051 19.8203H5.62203C4.66141 19.8203 3.74013 19.4445 3.06087 18.7755C2.38161 18.1065 2 17.1991 2 16.253V12.7869" stroke="black" stroke-width="2.33739" stroke-linecap="round"/>
<path d="M114.002 14.0452H107.863" stroke="black" stroke-width="2.33739" stroke-linecap="round" stroke-linejoin="round"/>
<path d="M114.002 14.045C114.002 10.5941 111.204 7.79663 107.753 7.79663C104.302 7.79663 101.505 10.5941 101.505 14.045C101.505 17.4958 104.302 20.2933 107.753 20.2933L111.546 20.2933" stroke="black" stroke-width="2.33739" stroke-linecap="round" stroke-linejoin="round"/>
<path d="M98.3805 7.8894L92.1143 20.3861" stroke="black" stroke-width="2.33739" stroke-linecap="round"/>
<path d="M85.8467 7.8894L92.1129 20.3861" stroke="black" stroke-width="2.33739" stroke-linecap="round"/>
<path d="M80.915 7.88892V20.2937" stroke="black" stroke-width="2.33739" stroke-linecap="round"/>
<path d="M63.7676 20.3536V14.0849C63.7676 10.6374 66.5622 7.84277 70.0097 7.84277C73.2438 7.84277 75.9034 10.3021 76.2203 13.4527" stroke="black" stroke-width="2.33739" stroke-linecap="round"/>
<path d="M46.2744 14.0849C46.2744 10.6374 49.0691 7.84277 52.5166 7.84277C55.9641 7.84277 58.7587 10.6374 58.7587 14.0849V20.3332" stroke="black" stroke-width="2.33739" stroke-linecap="round" stroke-linejoin="round"/>
<path d="M46.1807 20.3333L46.2726 4.55493" stroke="black" stroke-width="2.33739" stroke-linecap="round" stroke-linejoin="round"/>
<path d="M29.1826 7.84277H35.1926" stroke="black" stroke-width="2.33739" stroke-linecap="round"/>
<path d="M41.6353 14.7437C41.3184 17.8942 38.6588 20.3536 35.4248 20.3536C31.9773 20.3536 29.1826 17.559 29.1826 14.1115V4.65527" stroke="black" stroke-width="2.33739" stroke-linecap="round"/>
</svg>
