<svg width="243" height="44" viewBox="0 0 243 44" fill="none" xmlns="http://www.w3.org/2000/svg">
<path d="M62.45 14.2966H54.8359V11.0161H73.7495V14.2966H66.1355V32.8862H62.45V14.2966Z" fill="black"/>
<path d="M77.1934 11.0161H81.1624L86.2249 27.6212L91.0444 11.0161H94.4869L99.2254 27.6212H99.3064L104.288 11.0161H108.257L101.331 32.8862H97.3624L92.7049 16.8481L88.0879 32.8862H84.1189L77.1934 11.0161Z" fill="black"/>
<path d="M120.81 10.5706C127.128 10.5706 131.948 14.9851 131.948 21.7486C131.948 28.7146 127.128 33.2911 120.81 33.2911C114.492 33.2911 109.592 28.7146 109.592 21.7486C109.592 14.9851 114.492 10.5706 120.81 10.5706ZM120.81 30.0106C124.86 30.0106 128.141 26.9731 128.141 21.7891C128.141 16.8886 124.941 13.8106 120.81 13.8106C116.679 13.8106 113.48 16.8481 113.48 21.7891C113.48 26.9326 116.679 30.0106 120.81 30.0106Z" fill="black"/>
<path d="M164.023 11.0161H167.709V22.8017V32.8862H164.023V20.6551V11.0161Z" fill="black"/>
<path d="M183.748 10.5706C186.785 10.5706 189.296 11.5021 191.524 13.0411C191.524 13.0411 189.418 15.5926 189.256 15.5116C187.636 14.4991 185.894 13.8916 183.869 13.8916C179.414 13.8916 176.458 17.0911 176.458 21.7891C176.458 26.7706 179.252 30.0106 183.869 30.0106C185.57 30.0106 187.15 29.5651 188.243 28.9981C188.243 23.7331 188.243 23.7331 188.243 23.7331C182.776 23.7331 182.776 23.7331 182.776 23.7331C182.776 20.9386 182.776 20.9386 182.776 20.9386C191.726 20.9386 191.726 20.9386 191.726 20.9386C191.726 30.9421 191.726 30.9421 191.726 30.9421C189.62 32.4001 186.826 33.3316 183.788 33.3316C176.944 33.3316 172.651 28.6741 172.651 21.7891C172.61 15.3496 177.025 10.5706 183.748 10.5706Z" fill="black"/>
<path d="M196.992 11.0161H200.799L207.968 21.2626L215.136 11.0161H218.943V32.8862H215.298V16.5241L207.968 26.8517L200.637 16.5241V32.8862H196.992V11.0161Z" fill="black"/>
<path d="M230.527 11.0161H234.901L243.001 32.8862H238.951L237.331 28.1477H228.138L226.437 32.8862H222.387L230.527 11.0161ZM229.15 25.1507H236.238L232.714 14.9041H232.633L229.15 25.1507Z" fill="black"/>
<path d="M144.626 28.1476C146.57 29.2411 148.433 29.9297 150.863 29.9297C153.739 29.9297 155.156 28.7551 155.156 26.9731C155.156 22.0726 142.844 25.2721 142.844 16.8886C142.844 13.4056 145.801 10.6111 150.701 10.6111C153.577 10.6111 156.452 11.2996 158.72 12.6361C156.29 15.1876 156.29 15.1876 156.29 15.1876C154.508 14.4181 153.01 13.9321 150.823 13.9321C148.271 13.9321 146.854 15.1876 146.854 16.8886C146.854 21.7891 159.085 18.4276 159.085 26.9731C159.085 30.5372 156.371 33.3317 150.904 33.3317C147.704 33.3317 144.221 32.1572 142.115 30.6992L144.626 28.1476Z" fill="black"/>
<path d="M21.7486 0L0 21.9511L21.7486 43.8212L43.6187 21.9511L21.7486 0Z" fill="black"/>
<path d="M10.287 28.1476C10.125 21.1005 18.468 22.032 18.468 18.468C18.468 17.2935 17.6175 16.281 15.5925 16.281C14.094 16.281 12.636 17.0505 11.6235 17.982C10.125 16.443 10.125 16.443 10.125 16.443C11.3805 15.1875 13.4865 14.1345 15.714 14.1345C19.1565 14.1345 20.9385 16.0785 20.9385 18.387C20.9385 23.7331 12.8385 22.8015 12.8385 27.2161C20.8575 27.2161 20.8575 27.2161 20.8575 27.2161C20.8575 29.3221 20.8575 29.3221 20.8575 29.3221C10.3275 29.3221 10.3275 29.3221 10.3275 29.3221V28.1476H10.287Z" fill="white"/>
<path d="M27.1758 27.6211C25.5558 27.6211 24.5433 26.6086 24.5433 24.5836C24.5433 22.0321 26.2443 19.764 28.2693 19.764C29.8893 19.764 30.9018 20.7765 30.9018 22.8016C30.8613 25.3531 29.2008 27.6211 27.1758 27.6211ZM37.3818 17.7795C28.4313 17.7795 28.4313 17.7795 28.4313 17.7795C24.7863 17.7795 22.1133 20.655 22.1133 24.5431C22.1133 27.7021 24.0573 29.5246 26.9328 29.5246C30.5778 29.5246 33.3318 26.5681 33.3318 22.7611C33.3318 21.5055 33.0078 20.3716 32.4003 19.602C35.5188 19.602 35.5188 19.602 35.5188 19.602L37.3818 17.7795Z" fill="white"/>
</svg>
