<svg width="61" height="15" viewBox="0 0 61 15" fill="none" xmlns="http://www.w3.org/2000/svg">
<g clip-path="url(#clip0_1125_272)">
<path d="M39.0481 14.9999H36.4673C35.9893 14.9999 35.5831 14.6238 35.5831 14.13V7.45293L31.0665 10.2272C30.6842 10.4623 30.2062 10.4623 29.8239 10.2272L25.3312 7.45293V14.13C25.3312 14.6003 24.9489 14.9999 24.447 14.9999H21.89C21.4121 14.9999 21.0059 14.6238 21.0059 14.13V1.24603C21.0059 0.611235 21.5316 0.0939941 22.1768 0.0939941C22.4158 0.0939941 22.6309 0.164527 22.822 0.305593L29.9434 5.12534C30.2301 5.33694 30.6364 5.33694 30.9231 5.12534L38.0445 0.305593C38.5702 -0.0470717 39.311 0.0939941 39.6695 0.611235C39.8128 0.799323 39.8606 1.03443 39.8845 1.24603V14.13C39.9084 14.6003 39.5261 14.9999 39.0481 14.9999Z" fill="black"/>
<path d="M17.1585 14.9765H1.14752C0.502298 14.9765 -0.0234375 14.4592 -0.0234375 13.8245V0.869906C0.000459557 0.376176 0.382812 0 0.884651 0H3.46553C3.94347 0 4.34972 0.376176 4.34972 0.869906V10.721H14.0519V0.869906C14.0519 0.399687 14.4343 0 14.9361 0H17.4453C17.9233 0 18.3295 0.376176 18.3295 0.869906V13.8245C18.3295 14.4592 17.8038 14.9765 17.1585 14.9765Z" fill="black"/>
<path d="M43.7803 0H59.7914C60.4366 0 60.9623 0.517241 60.9623 1.15204V14.1066C60.9623 14.5768 60.58 14.9765 60.102 14.9765H57.5211C57.0432 14.9765 56.6369 14.6003 56.6369 14.1066V4.81975C56.6369 4.51411 56.3741 4.25549 56.0634 4.25549H47.5322C47.2215 4.25549 46.9586 4.51411 46.9586 4.81975V14.1066C46.9586 14.5768 46.5763 14.9765 46.0744 14.9765H43.4936C43.0156 14.9765 42.6094 14.6003 42.6094 14.1066V1.15204C42.6094 0.517241 43.1351 0 43.7803 0Z" fill="black"/>
<path d="M50.4945 6.98267H53.0515C53.5295 6.98267 53.9357 7.35884 53.9357 7.85257V10.4153C53.9357 10.8855 53.5534 11.2852 53.0515 11.2852H50.4945C50.0166 11.2852 49.6104 10.909 49.6104 10.4153V7.82906C49.6104 7.35884 50.0166 6.98267 50.4945 6.98267Z" fill="black"/>
</g>
<defs>
<clipPath id="clip0_1125_272">
<rect width="60.9375" height="15" fill="white"/>
</clipPath>
</defs>
</svg>
